{"glyphs":{"0":{"ha":803,"x_min":26,"x_max":776,"o":"m 255 1039 q 288 1057 255 1039 q 401 1075 321 1075 q 548 1039 482 1075 q 656 946 614 1003 q 725 814 697 889 q 765 666 753 739 q 776 522 776 593 q 765 379 776 451 q 724 233 753 307 q 654 101 696 158 q 547 8 613 44 q 401 -28 481 -28 q 256 8 322 -28 q 149 101 190 44 q 78 233 107 158 q 38 379 50 307 q 26 522 26 451 q 38 666 26 593 q 78 814 50 739 q 147 946 106 889 q 255 1039 189 1003 m 401 897 q 314 856 351 897 q 259 749 276 814 q 234 629 242 685 q 226 525 226 574 q 234 422 226 478 q 259 300 242 365 q 314 192 276 235 q 401 150 351 150 q 490 192 453 150 q 544 300 526 235 q 569 421 561 365 q 576 525 576 476 q 569 629 576 574 q 544 749 561 685 q 490 856 526 814 q 401 897 453 897 z "},"1":{"ha":803,"x_min":201,"x_max":543,"o":"m 339 869 l 201 869 l 201 1047 l 543 1047 l 543 0 l 339 0 l 339 869 z "},"2":{"ha":803,"x_min":39,"x_max":744,"o":"m 401 178 l 744 178 l 744 0 l 39 0 l 306 336 q 329 365 307 338 q 358 401 351 393 q 386 438 364 410 q 418 480 408 467 q 447 521 428 493 q 475 566 465 549 q 498 608 485 583 q 517 651 511 633 q 528 690 524 669 q 533 728 533 711 q 496 844 533 790 q 399 897 458 897 q 300 841 335 897 q 269 718 265 785 l 53 718 q 153 976 64 876 q 397 1075 242 1075 q 640 978 542 1075 q 738 738 738 881 q 690 546 738 633 q 556 357 643 458 l 401 178 z "},"3":{"ha":803,"x_min":43,"x_max":739,"o":"m 276 774 l 82 774 q 180 993 96 911 q 403 1075 264 1075 q 622 994 539 1075 q 704 779 704 914 q 679 654 704 714 q 604 561 654 594 q 705 459 671 532 q 739 306 739 386 q 641 63 739 154 q 390 -28 543 -28 q 149 67 247 -28 q 43 303 51 161 l 249 303 q 292 194 251 238 q 399 150 333 150 q 501 201 464 150 q 539 318 539 251 q 498 438 539 386 q 392 485 457 490 l 354 482 l 354 628 l 376 628 q 475 667 440 628 q 510 772 510 706 q 478 867 510 828 q 390 906 446 906 q 309 866 339 906 q 276 774 279 826 z "},"4":{"ha":803,"x_min":4,"x_max":768,"o":"m 657 349 l 768 349 l 768 185 l 657 185 l 657 0 l 465 0 l 465 185 l 4 185 l 4 276 l 471 1067 l 657 1067 l 657 349 m 465 349 l 465 765 l 463 765 l 242 349 l 465 349 z "},"5":{"ha":803,"x_min":44,"x_max":736,"o":"m 693 869 l 382 869 l 346 710 l 399 713 q 642 606 547 713 q 736 349 736 500 q 630 76 736 181 q 356 -28 524 -28 q 44 111 167 -28 l 106 286 q 210 188 149 225 q 342 150 272 150 q 477 211 425 150 q 529 357 529 272 q 470 504 529 443 q 325 565 411 565 q 157 497 229 565 l 125 497 l 238 1047 l 693 1047 l 693 869 z "},"6":{"ha":803,"x_min":29,"x_max":765,"o":"m 435 1090 l 585 982 l 369 678 l 372 675 q 454 689 406 689 q 679 586 593 689 q 765 342 765 483 q 661 76 765 181 q 396 -28 557 -28 q 134 72 239 -28 q 29 328 29 172 q 157 678 29 488 l 435 1090 m 274 199 q 298 169 274 199 q 394 139 321 139 q 514 199 468 139 q 560 333 560 258 q 514 469 560 410 q 394 529 468 529 q 274 469 321 529 q 228 333 228 408 q 274 199 228 258 z "},"7":{"ha":803,"x_min":60,"x_max":808,"o":"m 499 869 l 60 869 l 60 1047 l 808 1047 l 235 -28 l 67 68 l 499 869 z "},"8":{"ha":803,"x_min":63,"x_max":740,"o":"m 498 413 q 480 438 498 413 q 401 463 461 463 q 305 413 342 463 q 268 301 268 364 q 305 190 268 239 q 401 142 342 142 q 498 190 461 142 q 535 301 535 239 q 498 413 535 364 m 232 546 q 131 641 168 578 q 94 776 94 704 q 182 992 94 908 q 401 1075 269 1075 q 621 992 533 1075 q 708 776 708 908 q 672 641 708 704 q 571 546 635 578 q 697 443 654 514 q 740 279 740 372 q 640 58 740 143 q 401 -28 539 -28 q 163 58 264 -28 q 63 279 63 143 q 106 443 63 372 q 232 546 149 514 m 489 877 q 472 900 489 877 q 401 922 456 922 q 314 877 347 922 q 281 776 281 832 q 314 674 281 719 q 401 629 347 629 q 489 674 456 629 q 522 776 522 719 q 489 877 522 832 z "},"9":{"ha":803,"x_min":36,"x_max":772,"o":"m 367 -44 l 217 65 l 432 369 l 429 372 q 347 357 392 357 q 122 460 208 357 q 36 704 36 563 q 140 971 36 867 q 406 1075 244 1075 q 667 975 563 1075 q 772 718 772 875 q 644 368 772 558 l 367 -44 m 527 848 q 504 878 527 848 q 407 908 481 908 q 288 849 333 908 q 242 713 242 789 q 288 576 242 636 q 407 517 333 517 q 527 577 481 517 q 574 713 574 638 q 527 848 574 788 z "},"�":{"ha":401,"x_min":0,"x_max":0,"o":""}," ":{"ha":401,"x_min":0,"x_max":0,"o":""},"!":{"ha":451,"x_min":101,"x_max":349,"o":"m 138 184 q 156 202 138 184 q 225 219 174 219 q 313 184 276 219 q 349 97 349 149 q 313 9 349 46 q 225 -28 276 -28 q 138 9 174 -28 q 101 97 101 46 q 138 184 101 149 m 126 301 l 126 1047 l 324 1047 l 324 301 l 126 301 z "},"\"":{"ha":678,"x_min":122,"x_max":556,"o":"m 122 1047 l 289 1047 l 264 592 l 147 592 l 122 1047 m 389 1047 l 556 1047 l 531 592 l 414 592 l 389 1047 z "},"#":{"ha":803,"x_min":19,"x_max":783,"o":"m 293 1008 l 440 1008 l 386 726 l 526 726 l 581 1008 l 726 1008 l 672 726 l 783 726 l 783 569 l 647 569 l 614 397 l 744 397 l 744 240 l 581 240 l 535 0 l 388 0 l 433 240 l 293 240 l 247 0 l 100 0 l 146 240 l 19 240 l 19 397 l 176 397 l 210 569 l 76 569 l 76 726 l 239 726 l 293 1008 m 357 569 l 324 397 l 465 397 l 501 569 l 357 569 z "},"$":{"ha":803,"x_min":75,"x_max":726,"o":"m 372 -139 l 372 -7 q 196 53 264 6 q 75 199 128 101 l 199 318 q 393 169 274 169 q 490 210 453 169 q 528 310 528 250 q 519 354 528 333 q 500 388 510 375 q 465 417 490 400 q 427 440 439 433 q 378 463 415 446 q 331 485 340 481 q 233 540 271 514 q 165 622 196 567 q 133 753 133 678 q 197 949 133 869 q 372 1049 260 1028 l 372 1178 l 474 1178 l 474 1047 q 694 928 611 1031 l 601 796 q 447 881 536 881 q 365 849 400 881 q 329 771 329 818 q 338 727 329 746 q 372 690 347 708 q 413 663 397 672 q 472 635 429 654 q 528 608 514 615 q 626 550 588 579 q 695 463 664 521 q 726 326 726 404 q 658 114 726 204 q 474 0 590 24 l 474 -139 l 372 -139 z "},"%":{"ha":1072,"x_min":7,"x_max":1064,"o":"m 78 1005 q 113 1040 78 1005 q 256 1075 149 1075 q 433 1005 363 1075 q 504 826 504 935 q 433 649 504 719 q 256 579 363 579 q 78 649 149 579 q 7 826 7 719 q 78 1005 7 935 m 335 920 q 320 941 335 920 q 256 963 304 963 q 176 920 207 963 q 144 826 144 878 q 175 733 144 775 q 256 692 206 692 q 336 733 306 692 q 367 826 367 775 q 335 920 367 878 m 768 1083 l 863 1036 l 301 -43 l 206 6 l 768 1083 m 638 398 q 673 433 638 398 q 815 468 708 468 q 993 398 922 468 q 1064 219 1064 328 q 993 42 1064 113 q 815 -28 922 -28 q 638 42 708 -28 q 567 219 567 113 q 638 398 567 328 m 895 313 q 880 334 895 313 q 815 356 864 356 q 735 313 767 356 q 704 219 704 271 q 735 126 704 168 q 815 85 765 85 q 896 126 865 85 q 926 219 926 168 q 895 313 926 271 z "},"&":{"ha":975,"x_min":46,"x_max":986,"o":"m 532 246 l 369 464 q 313 418 333 438 q 272 365 292 399 q 251 296 251 332 q 289 200 251 244 q 376 156 326 156 q 437 172 406 156 q 485 202 468 188 q 532 246 501 217 m 393 754 l 443 683 l 478 713 q 536 826 536 763 q 514 898 536 867 q 454 929 492 929 q 391 901 414 929 q 368 832 368 872 q 393 754 368 789 m 738 0 l 653 106 q 353 -28 500 -28 q 133 59 221 -28 q 46 278 46 146 q 197 550 46 447 l 260 593 q 175 815 175 711 q 251 1003 175 931 q 442 1075 328 1075 q 633 1003 557 1075 q 710 817 710 932 q 538 564 710 676 l 683 376 l 789 511 l 918 390 l 806 239 l 986 0 l 738 0 z "},"’":{"ha":411,"x_min":42,"x_max":371,"o":"m 193 1075 l 371 1054 l 171 638 l 42 653 l 193 1075 z "},"(":{"ha":376,"x_min":103,"x_max":363,"o":"m 243 1156 l 363 1075 q 249 450 249 817 q 363 -174 249 75 l 243 -256 q 103 458 103 21 q 138 826 103 640 q 243 1156 172 1011 z "},")":{"ha":376,"x_min":14,"x_max":274,"o":"m 14 1075 l 133 1156 q 239 826 204 1011 q 274 458 274 640 q 133 -256 274 21 l 14 -174 q 128 450 128 75 q 14 1075 128 817 z "},"*":{"ha":579,"x_min":75,"x_max":504,"o":"m 231 1047 l 350 1047 l 347 907 l 454 979 l 504 886 l 392 817 l 504 747 l 454 654 l 347 726 l 350 589 l 231 589 l 235 726 l 126 654 l 76 747 l 186 817 l 75 886 l 124 979 l 235 907 l 231 1047 z "},"+":{"ha":803,"x_min":46,"x_max":757,"o":"m 319 711 l 483 711 l 483 438 l 757 438 l 757 274 l 483 274 l 483 0 l 319 0 l 319 274 l 46 274 l 46 438 l 319 438 l 319 711 z "},",":{"ha":401,"x_min":36,"x_max":365,"o":"m 188 217 l 365 197 l 165 -221 l 36 -206 l 188 217 z "},".":{"ha":401,"x_min":78,"x_max":325,"o":"m 114 184 q 132 202 114 184 q 201 219 150 219 q 289 184 253 219 q 325 97 325 149 q 289 9 325 46 q 201 -28 253 -28 q 114 9 150 -28 q 78 97 78 46 q 114 184 78 149 z "},"/":{"ha":749,"x_min":51,"x_max":697,"o":"m 563 1178 l 697 1129 l 186 -225 l 51 -176 l 563 1178 z "},":":{"ha":401,"x_min":78,"x_max":325,"o":"m 114 184 q 132 202 114 184 q 201 219 150 219 q 289 184 253 219 q 325 97 325 149 q 289 9 325 46 q 201 -28 253 -28 q 114 9 150 -28 q 78 97 78 46 q 114 184 78 149 m 114 684 q 132 702 114 684 q 201 719 150 719 q 289 684 253 719 q 325 597 325 649 q 289 509 325 546 q 201 472 253 472 q 114 509 150 472 q 78 597 78 546 q 114 684 78 649 z "},";":{"ha":401,"x_min":22,"x_max":381,"o":"m 174 217 l 351 197 l 151 -221 l 22 -206 l 174 217 m 169 684 q 188 702 169 684 q 257 719 206 719 q 344 684 308 719 q 381 597 381 649 q 344 509 381 546 q 257 472 308 472 q 169 509 206 472 q 133 597 133 546 q 169 684 133 649 z "},"<":{"ha":803,"x_min":46,"x_max":757,"o":"m 46 272 l 46 439 l 757 692 l 757 517 l 306 357 l 306 354 l 757 194 l 757 19 l 46 272 z "},"=":{"ha":803,"x_min":46,"x_max":757,"o":"m 46 438 l 46 601 l 757 601 l 757 438 l 46 438 m 46 110 l 46 274 l 757 274 l 757 110 l 46 110 z "},">":{"ha":803,"x_min":46,"x_max":757,"o":"m 757 439 l 757 272 l 46 19 l 46 194 l 497 354 l 497 357 l 46 517 l 46 692 l 757 439 z "},"?":{"ha":676,"x_min":42,"x_max":635,"o":"m 206 357 l 206 633 q 256 628 228 628 q 381 669 329 628 q 433 783 433 711 q 408 868 433 831 q 338 906 382 906 q 269 872 293 906 q 244 792 244 838 l 244 775 l 42 775 q 123 988 36 900 q 336 1075 210 1075 q 549 990 464 1075 q 635 776 635 904 q 573 593 635 674 q 411 490 511 513 l 400 357 l 206 357 m 218 184 q 236 202 218 184 q 306 219 254 219 q 393 184 357 219 q 429 97 429 149 q 393 9 429 46 q 306 -28 357 -28 q 218 9 254 -28 q 182 97 182 46 q 218 184 182 149 z "},"@":{"ha":1354,"x_min":171,"x_max":1183,"o":"m 819 517 q 791 642 829 600 q 678 685 753 685 q 551 624 597 685 q 506 481 506 564 q 538 373 506 415 q 633 331 571 331 q 819 517 796 331 m 854 704 l 874 792 l 972 792 l 903 431 q 891 353 890 394 q 922 311 892 311 q 1018 394 972 311 q 1064 581 1064 478 q 962 855 1064 754 q 697 956 860 956 q 407 831 524 956 q 290 524 290 707 q 419 213 290 335 q 729 92 547 92 q 979 151 897 92 l 1083 68 q 915 -4 996 19 q 710 -28 835 -28 q 327 130 483 -28 q 171 524 171 288 q 324 917 171 758 q 701 1075 478 1075 q 1028 953 896 1075 q 1183 631 1183 818 q 1097 333 1183 446 q 883 211 1001 206 q 808 297 822 214 q 619 211 722 211 q 456 288 526 211 q 386 471 386 364 q 465 704 386 604 q 669 804 544 804 q 854 704 779 804 z "},"A":{"ha":939,"x_min":-12,"x_max":951,"o":"m 653 221 l 289 221 l 203 0 l -12 0 l 396 1075 l 554 1075 l 951 0 l 733 0 l 653 221 m 596 388 l 465 768 l 463 768 l 347 388 l 596 388 z "},"B":{"ha":768,"x_min":75,"x_max":731,"o":"m 279 456 l 279 164 l 322 164 q 401 169 369 164 q 465 188 433 174 q 511 233 496 201 q 526 314 526 265 q 513 381 526 353 q 482 423 500 408 q 432 445 464 438 q 376 454 400 453 q 313 456 351 456 l 279 456 m 75 0 l 75 1047 l 329 1047 q 563 980 482 1047 q 643 763 643 913 q 620 645 643 701 q 551 560 597 589 q 685 468 639 544 q 731 297 731 392 q 638 75 731 150 q 396 0 546 0 l 75 0 m 279 883 l 279 611 l 304 611 q 418 641 383 611 q 453 749 453 671 q 415 853 453 824 q 306 883 376 883 l 279 883 z "},"C":{"ha":835,"x_min":25,"x_max":775,"o":"m 775 1014 l 775 769 q 544 881 683 881 q 320 772 404 881 q 236 519 236 664 q 322 273 236 379 q 543 167 407 167 q 669 197 607 167 q 775 278 731 228 l 775 35 q 538 -28 643 -28 q 173 133 321 -28 q 25 515 25 294 q 89 792 25 664 q 273 997 153 919 q 542 1075 393 1075 q 775 1014 664 1075 z "},"D":{"ha":897,"x_min":75,"x_max":872,"o":"m 75 0 l 75 1047 l 367 1047 q 732 898 592 1047 q 872 522 872 749 q 730 149 872 299 q 365 0 588 0 l 75 0 m 279 869 l 279 178 l 313 178 q 661 524 661 178 q 313 869 661 869 l 279 869 z "},"E":{"ha":678,"x_min":75,"x_max":617,"o":"m 617 869 l 279 869 l 279 639 l 604 639 l 604 461 l 279 461 l 279 178 l 617 178 l 617 0 l 75 0 l 75 1047 l 617 1047 l 617 869 z "},"F":{"ha":643,"x_min":75,"x_max":594,"o":"m 594 869 l 279 869 l 279 639 l 575 639 l 575 461 l 279 461 l 279 0 l 75 0 l 75 1047 l 594 1047 l 594 869 z "},"G":{"ha":1026,"x_min":25,"x_max":1000,"o":"m 549 557 l 1000 557 l 1000 531 q 971 318 1000 417 q 885 141 942 219 q 735 17 828 63 q 524 -28 642 -28 q 260 49 376 -28 q 85 250 144 126 q 25 519 25 374 q 167 913 25 751 q 536 1075 308 1075 q 781 1010 671 1075 q 950 825 890 944 l 769 728 q 674 848 738 801 q 531 894 610 894 q 315 779 393 894 q 236 519 236 664 q 268 347 236 429 q 369 209 300 265 q 532 153 439 153 q 697 224 626 153 q 771 390 768 294 l 549 390 l 549 557 z "},"H":{"ha":936,"x_min":75,"x_max":861,"o":"m 279 635 l 657 635 l 657 1047 l 861 1047 l 861 0 l 657 0 l 657 468 l 279 468 l 279 0 l 75 0 l 75 1047 l 279 1047 l 279 635 z "},"I":{"ha":353,"x_min":75,"x_max":279,"o":"m 279 1047 l 279 0 l 75 0 l 75 1047 l 279 1047 z "},"J":{"ha":540,"x_min":-31,"x_max":471,"o":"m 471 1047 l 471 356 q 468 260 471 296 q 451 178 465 225 q 410 90 438 131 q 175 -28 329 -28 q 65 0 121 -28 q -31 71 10 28 l 100 221 q 132 174 108 196 q 179 153 156 153 q 209 158 196 153 q 231 175 222 164 q 246 199 239 186 q 257 230 253 211 q 263 263 261 249 q 266 299 265 276 q 267 333 267 321 q 267 365 267 344 q 267 390 267 385 l 267 1047 l 471 1047 z "},"K":{"ha":861,"x_min":75,"x_max":879,"o":"m 282 606 l 606 1047 l 857 1047 l 460 564 l 879 0 l 617 0 l 282 471 l 279 471 l 279 0 l 75 0 l 75 1047 l 279 1047 l 279 606 l 282 606 z "},"L":{"ha":558,"x_min":75,"x_max":568,"o":"m 279 1047 l 279 178 l 568 178 l 568 0 l 75 0 l 75 1047 l 279 1047 z "},"M":{"ha":1161,"x_min":15,"x_max":1146,"o":"m 940 0 l 857 650 l 854 650 l 617 -14 l 546 -14 l 317 650 l 314 650 l 221 0 l 15 0 l 192 1075 l 336 1075 l 594 385 l 842 1075 l 989 1075 l 1146 0 l 940 0 z "},"N":{"ha":1054,"x_min":75,"x_max":981,"o":"m 75 0 l 75 1075 l 222 1075 l 774 343 l 776 343 l 776 1047 l 981 1047 l 981 -21 l 833 -21 l 282 711 l 279 711 l 279 0 l 75 0 z "},"O":{"ha":1086,"x_min":25,"x_max":1061,"o":"m 915 134 q 841 53 915 134 q 543 -28 768 -28 q 172 134 318 -28 q 25 525 25 296 q 172 913 25 750 q 543 1075 319 1075 q 914 913 767 1075 q 1061 525 1061 750 q 915 134 1061 296 m 762 769 q 718 822 762 769 q 543 874 674 874 q 324 769 413 874 q 236 533 236 665 q 328 290 236 407 q 543 174 419 174 q 758 290 667 174 q 850 533 850 407 q 762 769 850 665 z "},"P":{"ha":733,"x_min":75,"x_max":715,"o":"m 279 392 l 279 0 l 75 0 l 75 1047 l 353 1047 q 715 722 715 1047 q 629 474 715 557 q 381 392 543 392 l 279 392 m 279 878 l 279 561 l 321 561 q 463 594 419 561 q 507 724 507 628 q 460 847 507 817 q 315 878 413 878 l 279 878 z "},"Q":{"ha":1086,"x_min":25,"x_max":1081,"o":"m 1081 -24 l 875 -44 l 803 43 q 543 -28 697 -28 q 172 134 318 -28 q 25 525 25 296 q 172 913 25 750 q 543 1075 319 1075 q 914 913 767 1075 q 1061 525 1061 750 q 938 146 1061 306 l 1081 -24 m 692 419 l 785 314 q 850 531 850 394 q 763 773 850 665 q 543 881 675 881 q 319 769 401 881 q 236 513 236 658 q 318 272 236 374 q 543 169 400 169 q 653 204 600 169 l 481 403 l 692 419 z "},"R":{"ha":775,"x_min":75,"x_max":783,"o":"m 488 442 l 783 0 l 536 0 l 282 422 l 279 422 l 279 0 l 75 0 l 75 1047 l 351 1047 q 608 970 515 1047 q 701 732 701 893 q 644 542 701 626 q 488 442 588 458 m 279 881 l 279 565 l 306 565 q 448 601 399 565 q 497 726 497 636 q 448 849 497 817 q 307 881 399 881 l 279 881 z "},"S":{"ha":731,"x_min":32,"x_max":699,"o":"m 664 958 l 568 817 q 411 903 504 903 q 322 869 361 903 q 283 785 283 835 q 306 723 283 750 q 366 678 329 696 q 447 643 403 661 q 535 601 492 625 q 616 544 579 576 q 676 456 653 511 q 699 331 699 401 q 606 72 699 171 q 354 -28 513 -28 q 32 176 154 -28 l 164 306 q 238 197 186 242 q 353 153 290 153 q 451 197 414 153 q 488 304 488 242 q 386 442 488 393 q 306 475 369 450 q 131 585 190 522 q 72 761 72 649 q 160 984 72 893 q 378 1075 247 1075 q 534 1042 450 1075 q 664 958 618 1010 z "},"T":{"ha":626,"x_min":0,"x_max":626,"o":"m 415 869 l 415 0 l 211 0 l 211 869 l 0 869 l 0 1047 l 626 1047 l 626 869 l 415 869 z "},"U":{"ha":917,"x_min":69,"x_max":847,"o":"m 69 421 l 69 1047 l 274 1047 l 274 461 q 276 378 274 414 q 289 297 278 343 q 318 221 300 250 q 372 171 336 192 q 458 150 408 150 q 544 171 508 150 q 599 221 581 192 q 628 297 617 250 q 641 378 639 343 q 643 461 643 414 l 643 1047 l 847 1047 l 847 421 q 753 94 847 215 q 458 -28 658 -28 q 164 94 258 -28 q 69 421 69 215 z "},"V":{"ha":888,"x_min":-19,"x_max":907,"o":"m 200 1047 l 451 342 l 454 342 l 688 1047 l 907 1047 l 500 -28 l 381 -28 l -19 1047 l 200 1047 z "},"W":{"ha":1357,"x_min":-19,"x_max":1376,"o":"m 194 1047 l 406 333 l 408 333 l 617 1061 l 738 1061 l 954 333 l 957 333 l 1163 1047 l 1376 1047 l 1022 -21 l 872 -21 l 664 664 l 661 664 l 464 -21 l 314 -21 l -19 1047 l 194 1047 z "},"X":{"ha":865,"x_min":-11,"x_max":876,"o":"m 324 554 l 42 1047 l 283 1047 l 450 722 l 603 1047 l 844 1047 l 554 554 l 876 0 l 639 0 l 428 383 l 228 0 l -11 0 l 324 554 z "},"Y":{"ha":815,"x_min":-22,"x_max":838,"o":"m 303 481 l -22 1047 l 215 1047 l 399 683 l 599 1047 l 838 1047 l 507 481 l 507 0 l 303 0 l 303 481 z "},"Z":{"ha":799,"x_min":7,"x_max":792,"o":"m 332 178 l 767 178 l 767 0 l 7 0 l 468 869 l 78 869 l 78 1047 l 792 1047 l 332 178 z "},"[":{"ha":400,"x_min":63,"x_max":338,"o":"m 210 1047 l 210 0 l 338 0 l 338 -126 l 63 -126 l 63 1174 l 338 1174 l 338 1047 l 210 1047 z "},"\\":{"ha":749,"x_min":42,"x_max":708,"o":"m 42 1178 l 197 1178 l 708 0 l 553 0 l 42 1178 z "},"]":{"ha":400,"x_min":63,"x_max":338,"o":"m 190 0 l 190 1047 l 63 1047 l 63 1174 l 338 1174 l 338 -126 l 63 -126 l 63 0 l 190 0 z "},"^":{"ha":803,"x_min":46,"x_max":757,"o":"m 46 457 l 314 1047 l 486 1047 l 757 457 l 578 457 l 401 850 l 225 457 l 46 457 z "},"_":{"ha":694,"x_min":0,"x_max":694,"o":"m 694 -157 l 694 -261 l 0 -261 l 0 -157 l 694 -157 z "},"‘":{"ha":411,"x_min":42,"x_max":371,"o":"m 221 638 l 42 657 l 242 1075 l 371 1060 l 221 638 z "},"a":{"ha":785,"x_min":21,"x_max":714,"o":"m 714 682 l 714 0 l 522 0 l 522 63 l 519 63 q 335 -22 454 -22 q 106 88 192 -22 q 21 344 21 197 q 106 597 21 489 q 332 704 192 704 q 522 618 449 704 l 522 682 l 714 682 m 263 209 q 286 180 263 209 q 379 150 308 150 q 496 209 450 150 q 542 342 542 268 q 496 474 542 415 q 379 532 450 532 q 263 474 308 532 q 218 342 218 415 q 263 209 218 268 z "},"b":{"ha":785,"x_min":69,"x_max":764,"o":"m 69 0 l 69 1178 l 264 1178 l 264 619 q 453 704 335 704 q 678 595 592 704 q 764 344 764 486 q 678 87 764 196 q 449 -22 593 -22 q 344 1 394 -22 q 267 64 294 24 l 264 64 l 264 0 l 69 0 m 290 209 q 312 180 290 209 q 406 150 335 150 q 522 209 476 150 q 567 342 567 268 q 522 474 567 415 q 406 532 476 532 q 290 474 335 532 q 244 342 244 415 q 290 209 244 268 z "},"c":{"ha":585,"x_min":21,"x_max":533,"o":"m 533 661 l 533 474 q 390 540 467 540 q 265 479 313 540 q 218 338 218 418 q 267 198 218 254 q 397 142 317 142 q 533 207 475 142 l 533 19 q 365 -22 458 -22 q 119 83 217 -22 q 21 339 21 189 q 122 599 21 493 q 375 704 222 704 q 533 661 464 704 z "},"d":{"ha":785,"x_min":21,"x_max":715,"o":"m 521 0 l 521 64 l 518 64 q 439 1 489 24 q 335 -22 389 -22 q 106 88 192 -22 q 21 344 21 197 q 106 597 21 489 q 332 704 192 704 q 436 682 386 704 q 518 619 486 660 l 521 619 l 521 1178 l 715 1178 l 715 0 l 521 0 m 263 209 q 286 180 263 209 q 379 150 308 150 q 495 209 450 150 q 540 342 540 268 q 495 474 540 415 q 379 532 450 532 q 263 474 308 532 q 218 342 218 415 q 263 209 218 268 z "},"e":{"ha":696,"x_min":21,"x_max":675,"o":"m 675 310 l 226 310 q 259 181 226 235 q 361 126 292 126 q 492 219 446 126 l 671 190 q 553 33 636 89 q 361 -22 469 -22 q 113 77 206 -22 q 21 335 21 176 q 106 601 21 497 q 351 704 192 704 q 593 601 511 704 q 675 333 675 497 l 675 310 m 232 431 l 492 431 q 449 528 483 488 q 363 568 415 568 q 274 528 307 568 q 232 431 240 489 z "},"f":{"ha":421,"x_min":11,"x_max":426,"o":"m 271 518 l 271 0 l 76 0 l 76 518 l 11 518 l 11 682 l 76 682 l 76 882 q 139 1107 76 1019 q 333 1194 201 1194 q 426 1172 383 1194 l 426 999 q 347 1022 379 1022 q 322 1019 333 1022 q 303 1007 311 1015 q 289 991 294 999 q 280 970 283 983 q 274 948 276 957 q 272 922 272 939 q 271 898 271 906 q 271 874 271 890 q 271 854 271 858 l 271 682 l 426 682 l 426 518 l 271 518 z "},"g":{"ha":781,"x_min":21,"x_max":711,"o":"m 711 682 l 711 42 q 381 -364 711 -364 q 145 -287 247 -364 q 36 -81 43 -211 l 242 -81 q 285 -167 249 -135 q 376 -200 321 -200 q 456 -181 425 -200 q 499 -124 486 -162 q 514 -56 511 -86 q 517 24 517 -26 l 517 68 l 514 68 q 433 2 483 26 q 328 -22 382 -22 q 103 83 185 -22 q 21 336 21 189 q 107 595 21 486 q 338 704 193 704 q 437 681 389 704 q 514 617 485 657 l 517 617 l 517 682 l 711 682 m 263 208 q 286 179 263 208 q 379 150 308 150 q 495 208 450 150 q 540 340 540 267 q 495 473 540 414 q 379 532 450 532 q 263 473 308 532 q 218 340 218 414 q 263 208 218 267 z "},"h":{"ha":750,"x_min":69,"x_max":681,"o":"m 69 1178 l 264 1178 l 264 625 l 267 625 q 444 704 324 704 q 681 417 681 704 l 681 0 l 486 0 l 486 361 q 486 414 486 400 q 481 460 486 428 q 465 508 475 493 q 434 535 456 522 q 381 549 413 549 q 315 529 340 549 q 279 472 289 510 q 267 407 269 433 q 264 338 264 381 l 264 0 l 69 0 l 69 1178 z "},"i":{"ha":351,"x_min":61,"x_max":292,"o":"m 274 682 l 274 0 l 79 0 l 79 682 l 274 682 m 95 1049 q 112 1066 95 1049 q 176 1083 129 1083 q 258 1049 224 1083 q 292 968 292 1015 q 258 886 292 919 q 176 853 225 853 q 94 886 128 853 q 61 968 61 919 q 95 1049 61 1015 z "},"j":{"ha":351,"x_min":61,"x_max":292,"o":"m 274 682 l 274 -364 l 79 -364 l 79 682 l 274 682 m 95 1049 q 112 1066 95 1049 q 176 1083 129 1083 q 258 1049 224 1083 q 292 968 292 1015 q 258 886 292 919 q 176 853 225 853 q 94 886 128 853 q 61 968 61 919 q 95 1049 61 1015 z "},"k":{"ha":731,"x_min":69,"x_max":746,"o":"m 264 1178 l 264 432 l 267 432 l 471 682 l 724 682 l 436 382 l 746 0 l 490 0 l 267 290 l 264 290 l 264 0 l 69 0 l 69 1178 l 264 1178 z "},"l":{"ha":332,"x_min":69,"x_max":264,"o":"m 264 1178 l 264 0 l 69 0 l 69 1178 l 264 1178 z "},"m":{"ha":1114,"x_min":69,"x_max":1044,"o":"m 264 682 l 264 621 l 267 621 q 433 704 325 704 q 629 597 564 704 q 714 676 660 647 q 828 704 768 704 q 1044 425 1044 704 l 1044 0 l 850 0 l 850 358 q 825 514 850 475 q 758 549 803 549 q 707 532 728 549 q 676 495 686 515 q 660 440 665 475 q 655 385 656 404 q 654 335 654 367 l 654 0 l 460 0 l 460 346 q 460 360 460 350 q 460 408 460 390 q 455 456 460 425 q 441 503 450 486 q 413 535 432 521 q 367 549 393 549 q 308 529 331 549 q 276 472 285 510 q 266 410 268 435 q 264 344 264 386 q 264 335 264 338 l 264 0 l 69 0 l 69 682 l 264 682 z "},"n":{"ha":750,"x_min":69,"x_max":681,"o":"m 264 682 l 264 619 l 267 619 q 444 704 322 704 q 681 417 681 704 l 681 0 l 486 0 l 486 361 q 486 414 486 400 q 481 460 486 428 q 465 508 475 493 q 434 535 456 522 q 381 549 413 549 q 315 529 340 549 q 279 472 289 510 q 267 407 269 433 q 264 338 264 381 l 264 0 l 69 0 l 69 682 l 264 682 z "},"o":{"ha":761,"x_min":22,"x_max":739,"o":"m 122 602 q 172 653 122 602 q 381 704 222 704 q 639 602 539 704 q 739 340 739 500 q 640 79 739 181 q 381 -22 540 -22 q 122 79 221 -22 q 22 340 22 181 q 122 602 22 500 m 497 474 q 475 503 497 474 q 381 532 453 532 q 264 474 308 532 q 219 340 219 415 q 265 208 219 267 q 381 150 310 150 q 497 208 451 150 q 542 340 542 267 q 497 474 542 415 z "},"p":{"ha":785,"x_min":69,"x_max":764,"o":"m 264 682 l 264 619 q 453 704 335 704 q 678 595 592 704 q 764 344 764 486 q 678 87 764 196 q 449 -22 593 -22 q 344 1 394 -22 q 267 64 294 24 l 264 64 l 264 -364 l 69 -364 l 69 682 l 264 682 m 290 209 q 312 180 290 209 q 406 150 335 150 q 522 209 476 150 q 567 342 567 268 q 522 474 567 415 q 406 532 476 532 q 290 474 335 532 q 244 342 244 415 q 290 209 244 268 z "},"q":{"ha":785,"x_min":21,"x_max":715,"o":"m 263 209 q 286 180 263 209 q 379 150 308 150 q 495 209 450 150 q 540 342 540 268 q 495 474 540 415 q 379 532 450 532 q 263 474 308 532 q 218 342 218 415 q 263 209 218 268 m 715 682 l 715 -364 l 521 -364 l 521 64 l 518 64 q 439 1 489 24 q 335 -22 389 -22 q 106 88 192 -22 q 21 344 21 197 q 106 597 21 489 q 332 704 192 704 q 436 682 386 704 q 518 619 486 660 l 521 619 l 521 682 l 715 682 z "},"r":{"ha":510,"x_min":69,"x_max":517,"o":"m 264 682 l 264 611 l 267 611 q 436 704 328 704 q 517 688 474 704 l 493 507 q 413 532 458 532 q 345 518 374 532 q 301 483 317 504 q 277 431 286 463 q 266 371 268 399 q 264 307 264 343 l 264 0 l 69 0 l 69 682 l 264 682 z "},"s":{"ha":569,"x_min":28,"x_max":533,"o":"m 503 633 l 419 521 q 317 568 369 568 q 272 551 292 568 q 253 510 253 533 q 260 484 253 496 q 283 463 267 472 q 313 448 299 454 q 352 432 326 442 q 393 415 378 422 q 495 344 457 388 q 533 219 533 300 q 456 44 533 110 q 268 -22 379 -22 q 28 92 122 -22 l 117 207 q 261 128 188 128 q 317 148 294 128 q 339 201 339 168 q 333 231 339 218 q 310 256 326 244 q 281 272 293 267 q 242 289 269 278 q 203 304 214 300 q 103 371 139 332 q 67 483 67 410 q 127 642 67 579 q 283 704 188 704 q 503 633 422 704 z "},"t":{"ha":381,"x_min":26,"x_max":407,"o":"m 288 518 l 288 0 l 93 0 l 93 518 l 26 518 l 26 682 l 93 682 l 93 913 l 288 913 l 288 682 l 407 682 l 407 518 l 288 518 z "},"u":{"ha":743,"x_min":65,"x_max":676,"o":"m 65 682 l 260 682 l 260 313 q 371 142 260 142 q 482 313 482 142 l 482 682 l 676 682 l 676 281 q 371 -22 676 -22 q 65 281 65 -22 l 65 682 z "},"v":{"ha":678,"x_min":-25,"x_max":701,"o":"m 189 682 l 349 297 l 489 682 l 701 682 l 388 -14 l 288 -14 l -25 682 l 189 682 z "},"w":{"ha":1088,"x_min":-25,"x_max":1113,"o":"m 188 682 l 329 289 l 496 704 l 589 704 l 757 283 l 901 682 l 1113 682 l 796 -14 l 697 -14 l 551 401 l 389 -14 l 289 -14 l -25 682 l 188 682 z "},"x":{"ha":763,"x_min":-25,"x_max":788,"o":"m 267 371 l 32 682 l 268 682 l 394 506 l 503 682 l 742 682 l 500 371 l 788 0 l 549 0 l 374 238 l 217 0 l -25 0 l 267 371 z "},"y":{"ha":722,"x_min":-25,"x_max":750,"o":"m 265 104 l -25 682 l 196 682 l 358 294 l 533 682 l 750 682 l 254 -364 l 40 -364 l 265 104 z "},"z":{"ha":668,"x_min":-1,"x_max":668,"o":"m 322 164 l 646 164 l 646 0 l -1 0 l 347 518 l 53 518 l 53 682 l 668 682 l 322 164 z "},"{":{"ha":540,"x_min":94,"x_max":444,"o":"m 94 417 l 94 518 q 199 728 199 564 l 199 981 q 240 1110 199 1057 q 317 1164 281 1164 l 444 1164 l 444 1038 l 389 1038 q 358 1024 368 1038 q 347 996 349 1010 q 346 951 346 982 l 346 706 q 321 576 346 633 q 277 499 296 518 q 240 467 258 479 q 265 446 251 460 q 299 405 279 432 q 333 331 319 378 q 346 229 346 285 l 346 -17 q 347 -61 346 -47 q 358 -89 349 -75 q 389 -103 368 -103 l 444 -103 l 444 -229 l 317 -229 q 240 -176 281 -229 q 199 -46 199 -122 l 199 207 q 94 417 199 371 z "},"|":{"ha":747,"x_min":292,"x_max":456,"o":"m 456 1178 l 456 0 l 292 0 l 292 1178 l 456 1178 z "},"}":{"ha":540,"x_min":96,"x_max":446,"o":"m 446 518 l 446 417 q 342 207 342 371 l 342 -46 q 301 -176 342 -122 q 224 -229 260 -229 l 96 -229 l 96 -103 l 151 -103 q 182 -89 172 -103 q 193 -61 192 -75 q 194 -17 194 -47 l 194 229 q 208 331 194 285 q 241 405 221 378 q 275 446 261 432 q 300 467 289 460 q 263 499 282 479 q 219 576 244 518 q 194 706 194 633 l 194 951 q 193 996 194 982 q 182 1024 192 1010 q 151 1038 172 1038 l 96 1038 l 96 1164 l 224 1164 q 301 1110 260 1164 q 342 981 342 1057 l 342 728 q 446 518 342 564 z "},"~":{"ha":803,"x_min":46,"x_max":757,"o":"m 619 504 l 757 379 q 718 314 732 336 q 674 254 704 292 q 613 199 644 217 q 546 181 581 181 q 517 183 532 181 q 491 190 501 186 q 465 201 481 193 q 442 214 449 210 q 418 228 435 218 q 397 242 401 239 q 350 274 383 250 q 297 306 317 297 q 261 315 278 315 q 183 208 228 315 l 46 331 q 85 388 56 344 q 135 458 115 432 q 190 508 156 483 q 258 532 224 532 q 414 461 324 532 q 544 396 490 396 q 619 504 581 396 z "},"¡":{"ha":451,"x_min":101,"x_max":349,"o":"m 138 678 q 156 696 138 678 q 225 714 174 714 q 313 678 276 714 q 349 592 349 643 q 313 503 349 540 q 225 467 276 467 q 138 503 174 467 q 101 592 101 540 q 138 678 101 643 m 126 -367 l 126 379 l 324 379 l 324 -367 l 126 -367 z "},"¢":{"ha":803,"x_min":146,"x_max":656,"o":"m 540 1006 l 540 885 q 656 850 618 871 l 656 654 q 515 724 593 724 q 390 663 438 724 q 343 522 343 603 q 391 386 343 443 q 517 329 439 329 q 653 399 606 329 l 656 399 l 656 203 q 540 168 603 175 l 540 39 l 439 39 l 439 165 q 226 283 306 176 q 146 526 146 389 q 224 769 146 668 q 439 889 303 871 l 439 1006 l 540 1006 z "},"£":{"ha":803,"x_min":14,"x_max":793,"o":"m 165 0 l 14 26 q 217 229 78 224 q 232 311 232 271 q 201 428 232 371 l 19 428 l 19 519 l 149 519 q 92 732 92 633 q 192 978 92 882 q 443 1075 293 1075 q 774 717 757 1075 l 569 693 l 572 740 q 535 852 575 800 q 438 904 496 904 q 331 851 369 904 q 293 726 293 797 q 351 533 293 650 l 358 519 l 547 519 l 547 428 l 392 428 q 397 319 400 381 q 394 266 397 301 q 392 214 392 231 l 485 176 q 572 154 538 154 q 649 236 625 154 l 793 206 q 579 -11 739 -11 q 414 29 521 -11 q 258 69 310 69 q 165 0 188 69 z "},"⁄":{"ha":249,"x_min":-206,"x_max":451,"o":"m 357 1083 l 451 1036 l -110 -43 l -206 6 l 357 1083 z "},"¥":{"ha":803,"x_min":-29,"x_max":831,"o":"m 400 683 l 593 1047 l 831 1047 l 589 624 l 775 624 l 775 532 l 532 532 l 503 481 l 503 431 l 775 431 l 775 339 l 503 339 l 503 0 l 299 0 l 299 339 l 26 339 l 26 431 l 299 431 l 299 481 l 265 532 l 26 532 l 26 624 l 213 624 l -29 1047 l 208 1047 l 400 683 z "},"ƒ":{"ha":803,"x_min":-6,"x_max":764,"o":"m 529 700 l 678 700 l 664 600 l 514 600 l 449 196 q 422 58 435 113 q 381 -56 408 4 q 316 -151 354 -117 q 216 -208 278 -185 q 72 -231 154 -231 l -6 -225 l 22 -50 l 68 -53 q 204 15 165 -53 q 257 225 233 68 l 317 600 l 233 600 l 247 700 l 333 700 l 360 860 q 447 1076 383 999 q 642 1154 511 1154 q 764 1125 711 1154 l 736 957 q 654 981 696 981 q 619 974 635 981 q 592 950 603 967 q 575 922 582 933 q 562 883 568 910 q 554 849 556 857 q 549 815 553 842 l 529 700 z "},"§":{"ha":801,"x_min":56,"x_max":746,"o":"m 328 475 l 521 357 q 572 465 572 400 q 552 528 572 506 q 490 575 532 550 q 481 581 483 579 l 285 701 q 229 596 229 660 q 232 572 229 583 q 237 552 235 560 q 247 535 239 544 q 258 521 256 525 q 274 508 261 517 q 290 497 288 499 q 310 486 293 496 q 328 475 326 476 m 669 950 l 496 950 q 463 1022 490 993 q 390 1051 435 1051 q 328 1020 351 1051 q 304 949 304 989 q 313 903 304 924 q 342 866 321 883 q 376 841 364 849 q 418 817 388 833 l 567 733 q 702 633 658 682 q 746 497 746 585 q 719 376 746 436 q 649 275 693 317 q 704 104 704 210 q 619 -102 704 -21 q 396 -183 533 -183 q 158 -96 251 -183 q 71 138 64 -8 l 263 138 q 299 24 261 74 q 399 -26 336 -26 q 480 10 449 -26 q 511 97 511 47 q 502 142 511 122 q 472 181 493 163 q 438 206 450 199 q 394 231 425 214 l 210 331 q 94 423 132 372 q 56 554 56 474 q 158 781 56 681 q 113 936 113 849 q 192 1123 113 1051 q 390 1194 272 1194 q 585 1128 506 1194 q 669 950 664 1063 z "},"¤":{"ha":803,"x_min":-44,"x_max":814,"o":"m 681 458 l 279 458 q 275 519 275 489 q 276 557 275 544 l 704 557 l 726 649 l 294 649 q 399 813 326 753 q 583 881 475 881 q 768 813 694 881 l 814 1014 q 581 1075 703 1075 q 251 951 392 1075 q 78 649 117 832 l -22 649 l -44 557 l 65 557 q 64 515 64 543 q 67 458 64 494 l -22 458 l -44 367 l 83 367 q 261 86 129 197 q 576 -28 397 -28 q 768 17 672 -28 l 768 246 q 688 186 726 204 q 582 167 642 167 q 411 225 486 167 q 304 367 342 278 l 658 367 l 681 458 z "},"'":{"ha":411,"x_min":122,"x_max":289,"o":"m 122 1047 l 289 1047 l 264 592 l 147 592 l 122 1047 z "},"“":{"ha":678,"x_min":42,"x_max":636,"o":"m 486 638 l 307 657 l 507 1075 l 636 1060 l 486 638 m 221 638 l 42 657 l 242 1075 l 371 1060 l 221 638 z "},"«":{"ha":714,"x_min":25,"x_max":644,"o":"m 471 444 l 644 192 l 524 111 l 303 444 l 524 782 l 643 704 l 471 444 m 193 444 l 367 192 l 246 111 l 25 444 l 246 782 l 365 704 l 193 444 z "},"‹":{"ha":436,"x_min":25,"x_max":367,"o":"m 193 444 l 367 192 l 246 111 l 25 444 l 246 782 l 365 704 l 193 444 z "},"›":{"ha":436,"x_min":69,"x_max":411,"o":"m 69 192 l 243 444 l 71 704 l 190 782 l 411 444 l 190 111 l 69 192 z "},"ﬁ":{"ha":756,"x_min":11,"x_max":694,"o":"m 271 518 l 271 0 l 76 0 l 76 518 l 11 518 l 11 682 l 76 682 l 76 882 q 139 1107 76 1019 q 333 1194 201 1194 q 426 1172 383 1194 l 426 999 q 347 1022 379 1022 q 322 1019 333 1022 q 303 1007 311 1015 q 289 991 294 999 q 280 970 283 983 q 274 948 276 957 q 272 922 272 939 q 271 898 271 906 q 271 874 271 890 q 271 854 271 858 l 271 682 l 426 682 l 426 518 l 271 518 m 676 682 l 676 0 l 482 0 l 482 682 l 676 682 m 498 1049 q 515 1066 498 1049 q 579 1083 532 1083 q 660 1049 626 1083 q 694 968 694 1015 q 661 886 694 919 q 579 853 628 853 q 497 886 531 853 q 464 968 464 919 q 498 1049 464 1015 z "},"ﬂ":{"ha":754,"x_min":11,"x_max":685,"o":"m 685 1178 l 685 0 l 490 0 l 490 1178 l 685 1178 m 271 518 l 271 0 l 76 0 l 76 518 l 11 518 l 11 682 l 76 682 l 76 882 q 139 1107 76 1019 q 333 1194 201 1194 q 426 1172 383 1194 l 426 999 q 347 1022 379 1022 q 322 1019 333 1022 q 303 1007 311 1015 q 289 991 294 999 q 280 970 283 983 q 274 948 276 957 q 272 922 272 939 q 271 898 271 906 q 271 874 271 890 q 271 854 271 858 l 271 682 l 426 682 l 426 518 l 271 518 z "},"–":{"ha":694,"x_min":0,"x_max":694,"o":"m 0 525 l 694 525 l 694 365 l 0 365 l 0 525 z "},"†":{"ha":801,"x_min":85,"x_max":717,"o":"m 310 1178 l 492 1178 l 492 844 l 717 844 l 717 683 l 492 683 l 492 -135 l 310 -135 l 310 683 l 85 683 l 85 844 l 310 844 l 310 1178 z "},"‡":{"ha":801,"x_min":85,"x_max":717,"o":"m 310 1178 l 492 1178 l 492 885 l 717 885 l 717 724 l 492 724 l 492 539 l 717 539 l 717 378 l 492 378 l 492 -133 l 310 -133 l 310 378 l 85 378 l 85 539 l 310 539 l 310 724 l 85 724 l 85 885 l 310 885 l 310 1178 z "},"·":{"ha":401,"x_min":78,"x_max":325,"o":"m 114 444 q 132 461 114 444 q 201 479 150 479 q 289 444 253 479 q 325 357 325 408 q 289 269 325 306 q 201 232 253 232 q 114 269 150 232 q 78 357 78 306 q 114 444 78 408 z "},"¶":{"ha":801,"x_min":29,"x_max":775,"o":"m 775 1047 l 775 917 l 690 917 l 690 -212 l 546 -212 l 546 917 l 460 917 l 460 -212 l 315 -212 l 315 393 q 117 472 196 393 q 29 690 39 551 q 108 935 19 822 q 328 1047 196 1047 l 775 1047 z "},"•":{"ha":801,"x_min":139,"x_max":663,"o":"m 585 339 q 547 301 585 339 q 400 263 508 263 q 215 339 292 263 q 139 524 139 415 q 214 710 138 633 q 400 786 290 786 q 586 710 510 786 q 663 524 663 633 q 585 339 663 415 z "},"‚":{"ha":411,"x_min":42,"x_max":371,"o":"m 193 217 l 371 197 l 171 -221 l 42 -206 l 193 217 z "},"„":{"ha":678,"x_min":42,"x_max":636,"o":"m 193 217 l 371 197 l 171 -221 l 42 -206 l 193 217 m 458 217 l 636 197 l 436 -221 l 307 -206 l 458 217 z "},"”":{"ha":678,"x_min":42,"x_max":636,"o":"m 193 1075 l 371 1054 l 171 638 l 42 653 l 193 1075 m 458 1075 l 636 1054 l 436 638 l 307 653 l 458 1075 z "},"»":{"ha":714,"x_min":69,"x_max":689,"o":"m 69 192 l 243 444 l 71 704 l 190 782 l 411 444 l 190 111 l 69 192 m 347 192 l 521 444 l 349 704 l 468 782 l 689 444 l 468 111 l 347 192 z "},"…":{"ha":1389,"x_min":108,"x_max":1281,"o":"m 144 188 q 163 206 144 188 q 232 224 181 224 q 319 188 283 224 q 356 101 356 153 q 319 13 356 50 q 232 -24 283 -24 q 144 13 181 -24 q 108 101 108 50 q 144 188 108 153 m 607 184 q 625 202 607 184 q 694 219 643 219 q 782 184 746 219 q 818 97 818 149 q 782 9 818 46 q 694 -28 746 -28 q 607 9 643 -28 q 571 97 571 46 q 607 184 571 149 m 1069 184 q 1088 202 1069 184 q 1157 219 1106 219 q 1244 184 1208 219 q 1281 97 1281 149 q 1244 9 1281 46 q 1157 -28 1208 -28 q 1069 9 1106 -28 q 1033 97 1033 46 q 1069 184 1033 149 z "},"‰":{"ha":1667,"x_min":32,"x_max":1636,"o":"m 103 1005 q 138 1040 103 1005 q 281 1075 174 1075 q 458 1005 388 1075 q 529 826 529 935 q 458 649 529 719 q 281 579 388 579 q 103 649 174 579 q 32 826 32 719 q 103 1005 32 935 m 360 920 q 345 941 360 920 q 281 963 329 963 q 201 920 232 963 q 169 826 169 878 q 200 733 169 775 q 281 692 231 692 q 361 733 331 692 q 392 826 392 775 q 360 920 392 878 m 792 1083 l 886 1036 l 325 -43 l 229 6 l 792 1083 m 661 398 q 697 433 661 398 q 839 468 732 468 q 1017 398 946 468 q 1088 219 1088 328 q 1017 42 1088 113 q 839 -28 946 -28 q 661 42 732 -28 q 590 219 590 113 q 661 398 590 328 m 919 313 q 903 334 919 313 q 839 356 888 356 q 759 313 790 356 q 728 219 728 271 q 758 126 728 168 q 839 85 789 85 q 919 126 889 85 q 950 219 950 168 q 919 313 950 271 m 1210 398 q 1245 433 1210 398 q 1388 468 1281 468 q 1565 398 1494 468 q 1636 219 1636 328 q 1565 42 1636 113 q 1388 -28 1494 -28 q 1210 42 1281 -28 q 1139 219 1139 113 q 1210 398 1139 328 m 1467 313 q 1452 334 1467 313 q 1388 356 1436 356 q 1308 313 1339 356 q 1276 219 1276 271 q 1307 126 1276 168 q 1388 85 1338 85 q 1468 126 1438 85 q 1499 219 1499 168 q 1467 313 1499 271 z "},"¿":{"ha":676,"x_min":42,"x_max":635,"o":"m 471 351 l 471 75 q 421 81 449 81 q 295 39 347 81 q 243 -75 243 -3 q 269 -160 243 -122 q 339 -197 294 -197 q 408 -163 383 -197 q 432 -83 432 -129 l 432 -67 l 635 -67 q 553 -279 640 -192 q 340 -367 467 -367 q 127 -281 213 -367 q 42 -68 42 -196 q 103 115 42 35 q 265 218 165 196 l 276 351 l 471 351 m 283 678 q 301 696 283 678 q 371 714 319 714 q 458 678 422 714 q 494 592 494 643 q 458 503 494 540 q 371 467 422 467 q 283 503 319 467 q 247 592 247 540 q 283 678 247 643 z "},"`":{"ha":528,"x_min":110,"x_max":418,"o":"m 110 989 l 251 1075 l 418 842 l 319 781 l 110 989 z "},"´":{"ha":528,"x_min":110,"x_max":418,"o":"m 276 1075 l 418 989 l 208 781 l 110 842 l 276 1075 z "},"ˆ":{"ha":556,"x_min":42,"x_max":514,"o":"m 42 861 l 278 1075 l 514 861 l 431 769 l 278 914 l 125 769 l 42 861 z "},"˜":{"ha":556,"x_min":14,"x_max":543,"o":"m 128 839 l 14 839 q 60 971 19 910 q 165 1032 100 1032 q 272 1003 200 1032 q 363 972 351 972 q 394 982 381 972 q 412 1000 407 992 q 428 1031 417 1008 l 543 1031 q 488 893 529 951 q 375 835 446 835 q 279 865 346 835 q 188 896 213 896 q 128 839 144 896 z "},"¯":{"ha":556,"x_min":13,"x_max":543,"o":"m 13 1047 l 543 1047 l 543 925 l 13 925 l 13 1047 z "},"˘":{"ha":556,"x_min":38,"x_max":518,"o":"m 38 1047 l 174 1047 q 278 949 196 949 q 382 1047 360 949 l 518 1047 q 442 890 508 950 q 278 831 375 831 q 114 890 181 831 q 38 1047 47 950 z "},"˙":{"ha":528,"x_min":153,"x_max":375,"o":"m 185 1026 q 202 1042 185 1026 q 264 1058 218 1058 q 342 1026 310 1058 q 375 947 375 993 q 342 869 375 901 q 264 836 310 836 q 185 869 218 836 q 153 947 153 901 q 185 1026 153 993 z "},"¨":{"ha":556,"x_min":21,"x_max":536,"o":"m 53 1026 q 70 1042 53 1026 q 132 1058 86 1058 q 210 1026 178 1058 q 243 947 243 993 q 210 869 243 901 q 132 836 178 836 q 53 869 86 836 q 21 947 21 901 q 53 1026 21 993 m 347 1026 q 363 1042 347 1026 q 425 1058 379 1058 q 503 1026 471 1058 q 536 947 536 993 q 503 869 536 901 q 425 836 471 836 q 347 869 379 836 q 314 947 314 901 q 347 1026 314 993 z "},"˚":{"ha":528,"x_min":125,"x_max":403,"o":"m 166 1034 q 186 1055 166 1034 q 264 1075 207 1075 q 362 1034 321 1075 q 403 936 403 993 q 362 837 403 878 q 264 796 321 796 q 166 837 207 796 q 125 936 125 878 q 166 1034 125 993 m 304 976 q 296 985 304 976 q 264 993 288 993 q 224 976 240 993 q 207 936 207 960 q 224 895 207 913 q 264 878 240 878 q 304 895 288 878 q 321 936 321 913 q 304 976 321 960 z "},"¸":{"ha":528,"x_min":132,"x_max":396,"o":"m 268 -28 l 396 -93 l 235 -286 l 132 -233 l 268 -28 z "},"˝":{"ha":583,"x_min":7,"x_max":578,"o":"m 174 1075 l 315 989 l 106 781 l 7 842 l 174 1075 m 436 1075 l 578 989 l 368 781 l 269 842 l 436 1075 z "},"˛":{"ha":528,"x_min":138,"x_max":390,"o":"m 240 -28 l 338 -28 l 338 -31 q 263 -142 263 -79 q 280 -187 263 -168 q 324 -206 297 -206 q 390 -183 357 -206 l 371 -287 q 275 -312 335 -312 q 178 -280 219 -312 q 138 -193 138 -247 q 240 -28 138 -96 z "},"ˇ":{"ha":556,"x_min":29,"x_max":525,"o":"m 29 985 l 113 1075 l 276 931 l 442 1075 l 525 985 l 276 769 l 29 985 z "},"—":{"ha":1389,"x_min":0,"x_max":1389,"o":"m 0 525 l 1389 525 l 1389 365 l 0 365 l 0 525 z "},"Æ":{"ha":1279,"x_min":-12,"x_max":1290,"o":"m 649 221 l 286 221 l 204 0 l -12 0 l 394 1047 l 911 1047 l 975 869 l 628 869 l 713 638 l 1054 638 l 1118 460 l 776 460 l 881 178 l 1228 178 l 1290 0 l 731 0 l 649 221 m 593 388 l 464 743 l 461 743 l 346 388 l 593 388 z "},"ª":{"ha":471,"x_min":11,"x_max":461,"o":"m 461 564 l 461 461 l 11 461 l 11 564 l 461 564 m 461 1061 l 461 653 l 338 653 l 338 690 l 335 690 q 215 639 294 639 q 67 705 122 639 q 11 858 11 771 q 67 1010 11 944 q 214 1075 122 1075 q 338 1024 290 1075 l 338 1061 l 461 1061 m 169 778 q 184 760 169 778 q 244 742 199 742 q 320 778 290 742 q 350 857 350 814 q 321 937 350 901 q 244 972 292 972 q 168 937 197 972 q 139 857 139 901 q 169 778 139 814 z "},"Ł":{"ha":607,"x_min":19,"x_max":618,"o":"m 325 1047 l 325 728 l 471 843 l 471 650 l 325 540 l 325 178 l 618 178 l 618 0 l 121 0 l 121 424 l 19 342 l 19 532 l 121 607 l 121 1047 l 325 1047 z "},"Ø":{"ha":1086,"x_min":-1,"x_max":1083,"o":"m 1083 1003 l 960 865 q 1061 525 1061 708 q 915 134 1061 296 q 543 -28 768 -28 q 217 85 356 -28 l 93 -49 l -1 42 l 122 174 q 25 525 25 308 q 172 913 25 750 q 543 1075 319 1075 q 864 957 744 1069 l 988 1092 l 1083 1003 m 279 335 l 715 807 q 543 874 644 874 q 324 769 413 874 q 236 533 236 665 q 279 335 236 410 m 799 707 l 363 232 q 543 174 433 174 q 758 290 667 174 q 850 533 850 407 q 799 707 850 615 z "},"Œ":{"ha":1443,"x_min":25,"x_max":1382,"o":"m 1051 869 l 1051 638 l 1367 638 l 1367 460 l 1051 460 l 1051 178 l 1382 178 l 1382 0 l 849 0 l 849 118 q 528 -28 722 -28 q 270 53 388 -28 q 89 258 153 133 q 25 521 25 383 q 88 788 25 661 q 269 994 151 914 q 528 1075 386 1075 q 706 1037 621 1075 q 846 929 790 999 l 849 929 l 849 1047 l 1382 1047 l 1382 869 l 1051 869 m 524 874 q 305 767 390 874 q 219 521 219 660 q 305 279 219 385 q 524 174 390 174 q 744 279 658 174 q 831 521 831 385 q 744 767 831 660 q 524 874 658 874 z "},"º":{"ha":471,"x_min":3,"x_max":469,"o":"m 68 1014 q 101 1044 68 1014 q 236 1075 133 1075 q 404 1014 339 1075 q 469 857 469 953 q 405 700 469 761 q 236 639 340 639 q 67 700 132 639 q 3 857 3 761 q 68 1014 3 953 m 312 938 q 298 955 312 938 q 236 972 283 972 q 160 938 189 972 q 132 858 132 903 q 161 778 132 814 q 236 742 190 742 q 311 778 282 742 q 340 858 340 814 q 312 938 340 903 m 461 564 l 461 461 l 11 461 l 11 564 l 461 564 z "},"æ":{"ha":1100,"x_min":15,"x_max":1079,"o":"m 633 431 l 893 431 q 851 528 885 488 q 764 568 817 568 q 675 528 708 568 q 633 431 642 489 m 308 301 q 233 276 264 301 q 201 208 201 251 q 235 140 201 164 q 317 115 269 115 q 396 142 360 115 q 432 210 432 168 q 394 278 432 254 q 308 301 356 301 m 1079 310 l 631 310 q 663 181 631 235 q 765 126 696 126 q 896 219 850 126 l 1075 190 q 957 33 1040 89 q 765 -22 874 -22 q 522 90 596 -22 q 415 7 481 36 q 279 -22 350 -22 q 92 35 168 -22 q 15 201 15 93 q 91 366 15 307 q 275 425 167 425 q 433 388 364 425 l 433 410 q 392 519 433 482 q 276 556 350 556 q 110 525 193 556 l 110 676 q 300 704 221 704 q 431 678 368 704 q 524 600 493 653 q 756 704 606 704 q 997 601 915 704 q 1079 333 1079 497 l 1079 310 z "},"ı":{"ha":351,"x_min":79,"x_max":274,"o":"m 274 682 l 274 0 l 79 0 l 79 682 l 274 682 z "},"ł":{"ha":393,"x_min":-1,"x_max":399,"o":"m 296 1178 l 296 808 l 399 893 l 399 713 l 296 631 l 296 0 l 101 0 l 101 528 l -1 444 l -1 625 l 101 703 l 101 1178 l 296 1178 z "},"ø":{"ha":783,"x_min":-4,"x_max":786,"o":"m 786 674 l 692 571 q 746 340 746 479 q 647 79 746 181 q 388 -22 547 -22 q 157 53 249 -22 l 61 -49 l -4 14 l 89 113 q 29 340 29 210 q 129 602 29 500 q 388 704 229 704 q 622 633 540 704 l 719 736 l 786 674 m 246 257 l 479 500 q 388 532 446 532 q 271 474 315 532 q 226 340 226 415 q 246 257 226 300 m 532 425 l 301 185 q 388 150 340 150 q 503 208 458 150 q 549 340 549 267 q 532 425 549 390 z "},"œ":{"ha":1213,"x_min":19,"x_max":1193,"o":"m 743 431 l 1003 431 q 960 528 994 488 q 874 568 926 568 q 785 528 818 568 q 743 431 751 489 m 494 474 q 472 503 494 474 q 378 532 450 532 q 261 474 306 532 q 217 340 217 415 q 262 208 217 267 q 378 150 307 150 q 494 208 449 150 q 539 340 539 267 q 494 474 539 415 m 1193 310 l 744 310 q 777 181 744 235 q 879 126 810 126 q 1010 219 964 126 l 1189 190 q 1071 33 1154 89 q 879 -22 988 -22 q 626 96 707 -22 q 378 -22 539 -22 q 119 79 218 -22 q 19 340 19 181 q 119 602 19 500 q 378 704 219 704 q 626 590 526 704 q 869 704 708 704 q 1111 601 1029 704 q 1193 333 1193 497 l 1193 310 z "},"ß":{"ha":779,"x_min":69,"x_max":758,"o":"m 69 0 l 69 839 q 143 1099 69 1004 q 378 1194 217 1194 q 599 1111 514 1194 q 683 892 683 1028 q 578 667 683 750 q 713 542 668 628 q 758 353 758 457 q 653 81 758 183 q 378 -22 549 -22 l 350 -22 l 350 147 q 497 207 439 144 q 554 361 554 269 q 498 511 554 453 q 350 571 442 569 l 350 735 q 458 776 419 733 q 497 889 497 819 q 465 985 497 946 q 376 1025 432 1025 q 335 1017 353 1025 q 305 997 317 1008 q 285 963 293 985 q 272 924 276 940 q 266 880 268 908 q 263 838 264 851 q 263 794 263 824 q 264 758 264 764 l 264 0 l 69 0 z "},"Á":{"ha":939,"x_min":-12,"x_max":951,"o":"m 653 221 l 289 221 l 203 0 l -12 0 l 396 1075 l 554 1075 l 951 0 l 733 0 l 653 221 m 596 388 l 465 768 l 463 768 l 347 388 l 596 388 m 482 1440 l 624 1354 l 414 1146 l 315 1207 l 482 1440 z "},"Â":{"ha":939,"x_min":-12,"x_max":951,"o":"m 653 221 l 289 221 l 203 0 l -12 0 l 396 1075 l 554 1075 l 951 0 l 733 0 l 653 221 m 596 388 l 465 768 l 463 768 l 347 388 l 596 388 m 233 1226 l 469 1440 l 706 1226 l 622 1135 l 469 1279 l 317 1135 l 233 1226 z "},"Ä":{"ha":939,"x_min":-12,"x_max":951,"o":"m 653 221 l 289 221 l 203 0 l -12 0 l 396 1075 l 554 1075 l 951 0 l 733 0 l 653 221 m 596 388 l 465 768 l 463 768 l 347 388 l 596 388 m 245 1391 q 261 1407 245 1391 q 324 1424 278 1424 q 402 1391 369 1424 q 435 1313 435 1358 q 402 1234 435 1267 q 324 1201 369 1201 q 245 1234 278 1201 q 213 1313 213 1267 q 245 1391 213 1358 m 538 1391 q 555 1407 538 1391 q 617 1424 571 1424 q 695 1391 663 1424 q 728 1313 728 1358 q 695 1234 728 1267 q 617 1201 663 1201 q 538 1234 571 1201 q 506 1313 506 1267 q 538 1391 506 1358 z "},"À":{"ha":939,"x_min":-12,"x_max":951,"o":"m 653 221 l 289 221 l 203 0 l -12 0 l 396 1075 l 554 1075 l 951 0 l 733 0 l 653 221 m 596 388 l 465 768 l 463 768 l 347 388 l 596 388 m 315 1354 l 457 1440 l 624 1207 l 525 1146 l 315 1354 z "},"Å":{"ha":939,"x_min":-12,"x_max":951,"o":"m 653 221 l 289 221 l 203 0 l -12 0 l 396 1075 l 554 1075 l 951 0 l 733 0 l 653 221 m 596 388 l 465 768 l 463 768 l 347 388 l 596 388 m 372 1399 q 392 1420 372 1399 q 469 1440 413 1440 q 567 1399 526 1440 q 608 1301 608 1358 q 567 1202 608 1243 q 469 1161 526 1161 q 372 1202 413 1161 q 331 1301 331 1243 q 372 1399 331 1358 m 510 1342 q 501 1350 510 1342 q 469 1358 493 1358 q 429 1342 446 1358 q 413 1301 413 1325 q 429 1260 413 1278 q 469 1243 446 1243 q 510 1260 493 1243 q 526 1301 526 1278 q 510 1342 526 1325 z "},"Ã":{"ha":939,"x_min":-12,"x_max":951,"o":"m 653 221 l 289 221 l 203 0 l -12 0 l 396 1075 l 554 1075 l 951 0 l 733 0 l 653 221 m 596 388 l 465 768 l 463 768 l 347 388 l 596 388 m 319 1204 l 206 1204 q 251 1336 211 1275 q 357 1397 292 1397 q 464 1368 392 1397 q 554 1338 543 1338 q 585 1347 572 1338 q 603 1365 599 1357 q 619 1396 608 1374 l 735 1396 q 679 1258 721 1317 q 567 1200 638 1200 q 471 1231 538 1200 q 379 1261 404 1261 q 319 1204 336 1261 z "},"Ç":{"ha":835,"x_min":25,"x_max":775,"o":"m 775 1014 l 775 769 q 544 881 683 881 q 320 772 404 881 q 236 519 236 664 q 322 273 236 379 q 543 167 407 167 q 669 197 607 167 q 775 278 731 228 l 775 35 q 538 -28 643 -28 q 173 133 321 -28 q 25 515 25 294 q 89 792 25 664 q 273 997 153 919 q 542 1075 393 1075 q 775 1014 664 1075 m 422 -28 l 550 -93 l 389 -286 l 286 -233 l 422 -28 z "},"É":{"ha":678,"x_min":75,"x_max":617,"o":"m 617 869 l 279 869 l 279 639 l 604 639 l 604 461 l 279 461 l 279 178 l 617 178 l 617 0 l 75 0 l 75 1047 l 617 1047 l 617 869 m 351 1440 l 493 1354 l 283 1146 l 185 1207 l 351 1440 z "},"Ê":{"ha":678,"x_min":75,"x_max":617,"o":"m 617 869 l 279 869 l 279 639 l 604 639 l 604 461 l 279 461 l 279 178 l 617 178 l 617 0 l 75 0 l 75 1047 l 617 1047 l 617 869 m 103 1226 l 339 1440 l 575 1226 l 492 1135 l 339 1279 l 186 1135 l 103 1226 z "},"Ë":{"ha":678,"x_min":75,"x_max":617,"o":"m 617 869 l 279 869 l 279 639 l 604 639 l 604 461 l 279 461 l 279 178 l 617 178 l 617 0 l 75 0 l 75 1047 l 617 1047 l 617 869 m 115 1391 q 131 1407 115 1391 q 193 1424 147 1424 q 272 1391 239 1424 q 304 1313 304 1358 q 272 1234 304 1267 q 193 1201 239 1201 q 115 1234 147 1201 q 82 1313 82 1267 q 115 1391 82 1358 m 408 1391 q 424 1407 408 1391 q 486 1424 440 1424 q 565 1391 532 1424 q 597 1313 597 1358 q 565 1234 597 1267 q 486 1201 532 1201 q 408 1234 440 1201 q 375 1313 375 1267 q 408 1391 375 1358 z "},"È":{"ha":678,"x_min":75,"x_max":617,"o":"m 617 869 l 279 869 l 279 639 l 604 639 l 604 461 l 279 461 l 279 178 l 617 178 l 617 0 l 75 0 l 75 1047 l 617 1047 l 617 869 m 185 1354 l 326 1440 l 493 1207 l 394 1146 l 185 1354 z "},"Ð":{"ha":897,"x_min":-25,"x_max":872,"o":"m 75 0 l 75 468 l -25 468 l -25 635 l 75 635 l 75 1047 l 367 1047 q 732 898 592 1047 q 872 522 872 749 q 730 149 872 299 q 365 0 588 0 l 75 0 m 279 869 l 279 635 l 436 635 l 436 468 l 279 468 l 279 178 l 313 178 q 661 524 661 178 q 313 869 661 869 l 279 869 z "},"Í":{"ha":353,"x_min":22,"x_max":331,"o":"m 279 1047 l 279 0 l 75 0 l 75 1047 l 279 1047 m 189 1440 l 331 1354 l 121 1146 l 22 1207 l 189 1440 z "},"Î":{"ha":353,"x_min":-60,"x_max":413,"o":"m 279 1047 l 279 0 l 75 0 l 75 1047 l 279 1047 m -60 1226 l 176 1440 l 413 1226 l 329 1135 l 176 1279 l 24 1135 l -60 1226 z "},"Ï":{"ha":353,"x_min":-81,"x_max":435,"o":"m 279 1047 l 279 0 l 75 0 l 75 1047 l 279 1047 m -48 1391 q -32 1407 -48 1391 q 31 1424 -15 1424 q 109 1391 76 1424 q 142 1313 142 1358 q 109 1234 142 1267 q 31 1201 76 1201 q -48 1234 -15 1201 q -81 1313 -81 1267 q -48 1391 -81 1358 m 245 1391 q 261 1407 245 1391 q 324 1424 278 1424 q 402 1391 369 1424 q 435 1313 435 1358 q 402 1234 435 1267 q 324 1201 369 1201 q 245 1234 278 1201 q 213 1313 213 1267 q 245 1391 213 1358 z "},"Ì":{"ha":353,"x_min":22,"x_max":331,"o":"m 279 1047 l 279 0 l 75 0 l 75 1047 l 279 1047 m 22 1354 l 164 1440 l 331 1207 l 232 1146 l 22 1354 z "},"Ñ":{"ha":1054,"x_min":75,"x_max":981,"o":"m 75 0 l 75 1075 l 222 1075 l 774 343 l 776 343 l 776 1047 l 981 1047 l 981 -21 l 833 -21 l 282 711 l 279 711 l 279 0 l 75 0 m 378 1204 l 264 1204 q 310 1336 269 1275 q 415 1397 350 1397 q 522 1368 450 1397 q 613 1338 601 1338 q 644 1347 631 1338 q 662 1365 657 1357 q 678 1396 667 1374 l 793 1396 q 738 1258 779 1317 q 625 1200 696 1200 q 529 1231 596 1200 q 438 1261 463 1261 q 378 1204 394 1261 z "},"Ó":{"ha":1086,"x_min":25,"x_max":1061,"o":"m 915 134 q 841 53 915 134 q 543 -28 768 -28 q 172 134 318 -28 q 25 525 25 296 q 172 913 25 750 q 543 1075 319 1075 q 914 913 767 1075 q 1061 525 1061 750 q 915 134 1061 296 m 762 769 q 718 822 762 769 q 543 874 674 874 q 324 769 413 874 q 236 533 236 665 q 328 290 236 407 q 543 174 419 174 q 758 290 667 174 q 850 533 850 407 q 762 769 850 665 m 572 1440 l 714 1354 l 504 1146 l 406 1207 l 572 1440 z "},"Ô":{"ha":1086,"x_min":25,"x_max":1061,"o":"m 915 134 q 841 53 915 134 q 543 -28 768 -28 q 172 134 318 -28 q 25 525 25 296 q 172 913 25 750 q 543 1075 319 1075 q 914 913 767 1075 q 1061 525 1061 750 q 915 134 1061 296 m 762 769 q 718 822 762 769 q 543 874 674 874 q 324 769 413 874 q 236 533 236 665 q 328 290 236 407 q 543 174 419 174 q 758 290 667 174 q 850 533 850 407 q 762 769 850 665 m 307 1226 l 543 1440 l 779 1226 l 696 1135 l 543 1279 l 390 1135 l 307 1226 z "},"Ö":{"ha":1086,"x_min":25,"x_max":1061,"o":"m 915 134 q 841 53 915 134 q 543 -28 768 -28 q 172 134 318 -28 q 25 525 25 296 q 172 913 25 750 q 543 1075 319 1075 q 914 913 767 1075 q 1061 525 1061 750 q 915 134 1061 296 m 762 769 q 718 822 762 769 q 543 874 674 874 q 324 769 413 874 q 236 533 236 665 q 328 290 236 407 q 543 174 419 174 q 758 290 667 174 q 850 533 850 407 q 762 769 850 665 m 319 1391 q 335 1407 319 1391 q 397 1424 351 1424 q 476 1391 443 1424 q 508 1313 508 1358 q 476 1234 508 1267 q 397 1201 443 1201 q 319 1234 351 1201 q 286 1313 286 1267 q 319 1391 286 1358 m 612 1391 q 628 1407 612 1391 q 690 1424 644 1424 q 769 1391 736 1424 q 801 1313 801 1358 q 769 1234 801 1267 q 690 1201 736 1201 q 612 1234 644 1201 q 579 1313 579 1267 q 612 1391 579 1358 z "},"Ò":{"ha":1086,"x_min":25,"x_max":1061,"o":"m 915 134 q 841 53 915 134 q 543 -28 768 -28 q 172 134 318 -28 q 25 525 25 296 q 172 913 25 750 q 543 1075 319 1075 q 914 913 767 1075 q 1061 525 1061 750 q 915 134 1061 296 m 762 769 q 718 822 762 769 q 543 874 674 874 q 324 769 413 874 q 236 533 236 665 q 328 290 236 407 q 543 174 419 174 q 758 290 667 174 q 850 533 850 407 q 762 769 850 665 m 389 1354 l 531 1440 l 697 1207 l 599 1146 l 389 1354 z "},"Õ":{"ha":1086,"x_min":25,"x_max":1061,"o":"m 915 134 q 841 53 915 134 q 543 -28 768 -28 q 172 134 318 -28 q 25 525 25 296 q 172 913 25 750 q 543 1075 319 1075 q 914 913 767 1075 q 1061 525 1061 750 q 915 134 1061 296 m 762 769 q 718 822 762 769 q 543 874 674 874 q 324 769 413 874 q 236 533 236 665 q 328 290 236 407 q 543 174 419 174 q 758 290 667 174 q 850 533 850 407 q 762 769 850 665 m 393 1204 l 279 1204 q 325 1336 285 1275 q 431 1397 365 1397 q 538 1368 464 1397 q 628 1338 617 1338 q 659 1347 646 1338 q 677 1365 672 1357 q 693 1396 682 1374 l 808 1396 q 753 1258 794 1317 q 640 1200 711 1200 q 544 1231 611 1200 q 453 1261 478 1261 q 393 1204 410 1261 z "},"Š":{"ha":731,"x_min":32,"x_max":699,"o":"m 664 958 l 568 817 q 411 903 504 903 q 322 869 361 903 q 283 785 283 835 q 306 723 283 750 q 366 678 329 696 q 447 643 403 661 q 535 601 492 625 q 616 544 579 576 q 676 456 653 511 q 699 331 699 401 q 606 72 699 171 q 354 -28 513 -28 q 32 176 154 -28 l 164 306 q 238 197 186 242 q 353 153 290 153 q 451 197 414 153 q 488 304 488 242 q 386 442 488 393 q 306 475 369 450 q 131 585 190 522 q 72 761 72 649 q 160 984 72 893 q 378 1075 247 1075 q 534 1042 450 1075 q 664 958 618 1010 m 117 1350 l 200 1440 l 364 1296 l 529 1440 l 613 1350 l 364 1135 l 117 1350 z "},"Þ":{"ha":733,"x_min":75,"x_max":715,"o":"m 279 225 l 279 0 l 75 0 l 75 1047 l 279 1047 l 279 881 l 353 881 q 715 556 715 881 q 629 308 715 390 q 381 225 543 225 l 279 225 m 279 711 l 279 394 l 321 394 q 463 428 419 394 q 507 557 507 461 q 460 681 507 650 q 315 711 413 711 l 279 711 z "},"Ú":{"ha":917,"x_min":69,"x_max":847,"o":"m 69 421 l 69 1047 l 274 1047 l 274 461 q 276 378 274 414 q 289 297 278 343 q 318 221 300 250 q 372 171 336 192 q 458 150 408 150 q 544 171 508 150 q 599 221 581 192 q 628 297 617 250 q 641 378 639 343 q 643 461 643 414 l 643 1047 l 847 1047 l 847 421 q 753 94 847 215 q 458 -28 658 -28 q 164 94 258 -28 q 69 421 69 215 m 504 1440 l 646 1354 l 436 1146 l 338 1207 l 504 1440 z "},"Û":{"ha":917,"x_min":69,"x_max":847,"o":"m 69 421 l 69 1047 l 274 1047 l 274 461 q 276 378 274 414 q 289 297 278 343 q 318 221 300 250 q 372 171 336 192 q 458 150 408 150 q 544 171 508 150 q 599 221 581 192 q 628 297 617 250 q 641 378 639 343 q 643 461 643 414 l 643 1047 l 847 1047 l 847 421 q 753 94 847 215 q 458 -28 658 -28 q 164 94 258 -28 q 69 421 69 215 m 222 1226 l 458 1440 l 694 1226 l 611 1135 l 458 1279 l 306 1135 l 222 1226 z "},"Ü":{"ha":917,"x_min":69,"x_max":847,"o":"m 69 421 l 69 1047 l 274 1047 l 274 461 q 276 378 274 414 q 289 297 278 343 q 318 221 300 250 q 372 171 336 192 q 458 150 408 150 q 544 171 508 150 q 599 221 581 192 q 628 297 617 250 q 641 378 639 343 q 643 461 643 414 l 643 1047 l 847 1047 l 847 421 q 753 94 847 215 q 458 -28 658 -28 q 164 94 258 -28 q 69 421 69 215 m 234 1391 q 250 1407 234 1391 q 313 1424 267 1424 q 391 1391 358 1424 q 424 1313 424 1358 q 391 1234 424 1267 q 313 1201 358 1201 q 234 1234 267 1201 q 201 1313 201 1267 q 234 1391 201 1358 m 527 1391 q 543 1407 527 1391 q 606 1424 560 1424 q 684 1391 651 1424 q 717 1313 717 1358 q 684 1234 717 1267 q 606 1201 651 1201 q 527 1234 560 1201 q 494 1313 494 1267 q 527 1391 494 1358 z "},"Ù":{"ha":917,"x_min":69,"x_max":847,"o":"m 69 421 l 69 1047 l 274 1047 l 274 461 q 276 378 274 414 q 289 297 278 343 q 318 221 300 250 q 372 171 336 192 q 458 150 408 150 q 544 171 508 150 q 599 221 581 192 q 628 297 617 250 q 641 378 639 343 q 643 461 643 414 l 643 1047 l 847 1047 l 847 421 q 753 94 847 215 q 458 -28 658 -28 q 164 94 258 -28 q 69 421 69 215 m 288 1354 l 429 1440 l 596 1207 l 497 1146 l 288 1354 z "},"Ý":{"ha":815,"x_min":-22,"x_max":838,"o":"m 303 481 l -22 1047 l 215 1047 l 399 683 l 599 1047 l 838 1047 l 507 481 l 507 0 l 303 0 l 303 481 m 454 1440 l 596 1354 l 386 1146 l 288 1207 l 454 1440 z "},"Ÿ":{"ha":815,"x_min":-22,"x_max":838,"o":"m 303 481 l -22 1047 l 215 1047 l 399 683 l 599 1047 l 838 1047 l 507 481 l 507 0 l 303 0 l 303 481 m 184 1391 q 200 1407 184 1391 q 263 1424 217 1424 q 341 1391 308 1424 q 374 1313 374 1358 q 341 1234 374 1267 q 263 1201 308 1201 q 184 1234 217 1201 q 151 1313 151 1267 q 184 1391 151 1358 m 477 1391 q 493 1407 477 1391 q 556 1424 510 1424 q 634 1391 601 1424 q 667 1313 667 1358 q 634 1234 667 1267 q 556 1201 601 1201 q 477 1234 510 1201 q 444 1313 444 1267 q 477 1391 444 1358 z "},"Ž":{"ha":799,"x_min":7,"x_max":792,"o":"m 332 178 l 767 178 l 767 0 l 7 0 l 468 869 l 78 869 l 78 1047 l 792 1047 l 332 178 m 151 1350 l 235 1440 l 399 1296 l 564 1440 l 647 1350 l 399 1135 l 151 1350 z "},"á":{"ha":785,"x_min":21,"x_max":714,"o":"m 714 682 l 714 0 l 522 0 l 522 63 l 519 63 q 335 -22 454 -22 q 106 88 192 -22 q 21 344 21 197 q 106 597 21 489 q 332 704 192 704 q 522 618 449 704 l 522 682 l 714 682 m 263 209 q 286 180 263 209 q 379 150 308 150 q 496 209 450 150 q 542 342 542 268 q 496 474 542 415 q 379 532 450 532 q 263 474 308 532 q 218 342 218 415 q 263 209 218 268 m 439 1075 l 581 989 l 371 781 l 272 842 l 439 1075 z "},"â":{"ha":785,"x_min":21,"x_max":714,"o":"m 714 682 l 714 0 l 522 0 l 522 63 l 519 63 q 335 -22 454 -22 q 106 88 192 -22 q 21 344 21 197 q 106 597 21 489 q 332 704 192 704 q 522 618 449 704 l 522 682 l 714 682 m 263 209 q 286 180 263 209 q 379 150 308 150 q 496 209 450 150 q 542 342 542 268 q 496 474 542 415 q 379 532 450 532 q 263 474 308 532 q 218 342 218 415 q 263 209 218 268 m 157 861 l 393 1075 l 629 861 l 546 769 l 393 914 l 240 769 l 157 861 z "},"ä":{"ha":785,"x_min":21,"x_max":714,"o":"m 714 682 l 714 0 l 522 0 l 522 63 l 519 63 q 335 -22 454 -22 q 106 88 192 -22 q 21 344 21 197 q 106 597 21 489 q 332 704 192 704 q 522 618 449 704 l 522 682 l 714 682 m 263 209 q 286 180 263 209 q 379 150 308 150 q 496 209 450 150 q 542 342 542 268 q 496 474 542 415 q 379 532 450 532 q 263 474 308 532 q 218 342 218 415 q 263 209 218 268 m 169 1026 q 185 1042 169 1026 q 247 1058 201 1058 q 326 1026 293 1058 q 358 947 358 993 q 326 869 358 901 q 247 836 293 836 q 169 869 201 836 q 136 947 136 901 q 169 1026 136 993 m 462 1026 q 478 1042 462 1026 q 540 1058 494 1058 q 619 1026 586 1058 q 651 947 651 993 q 619 869 651 901 q 540 836 586 836 q 462 869 494 836 q 429 947 429 901 q 462 1026 429 993 z "},"à":{"ha":785,"x_min":21,"x_max":714,"o":"m 714 682 l 714 0 l 522 0 l 522 63 l 519 63 q 335 -22 454 -22 q 106 88 192 -22 q 21 344 21 197 q 106 597 21 489 q 332 704 192 704 q 522 618 449 704 l 522 682 l 714 682 m 263 209 q 286 180 263 209 q 379 150 308 150 q 496 209 450 150 q 542 342 542 268 q 496 474 542 415 q 379 532 450 532 q 263 474 308 532 q 218 342 218 415 q 263 209 218 268 m 239 989 l 381 1075 l 547 842 l 449 781 l 239 989 z "},"å":{"ha":785,"x_min":21,"x_max":714,"o":"m 714 682 l 714 0 l 522 0 l 522 63 l 519 63 q 335 -22 454 -22 q 106 88 192 -22 q 21 344 21 197 q 106 597 21 489 q 332 704 192 704 q 522 618 449 704 l 522 682 l 714 682 m 263 209 q 286 180 263 209 q 379 150 308 150 q 496 209 450 150 q 542 342 542 268 q 496 474 542 415 q 379 532 450 532 q 263 474 308 532 q 218 342 218 415 q 263 209 218 268 m 295 1034 q 316 1055 295 1034 q 393 1075 336 1075 q 491 1034 450 1075 q 532 936 532 993 q 491 837 532 878 q 393 796 450 796 q 295 837 336 796 q 254 936 254 878 q 295 1034 254 993 m 433 976 q 425 985 433 976 q 393 993 417 993 q 353 976 369 993 q 336 936 336 960 q 353 895 336 913 q 393 878 369 878 q 433 895 417 878 q 450 936 450 913 q 433 976 450 960 z "},"ã":{"ha":785,"x_min":21,"x_max":714,"o":"m 714 682 l 714 0 l 522 0 l 522 63 l 519 63 q 335 -22 454 -22 q 106 88 192 -22 q 21 344 21 197 q 106 597 21 489 q 332 704 192 704 q 522 618 449 704 l 522 682 l 714 682 m 263 209 q 286 180 263 209 q 379 150 308 150 q 496 209 450 150 q 542 342 542 268 q 496 474 542 415 q 379 532 450 532 q 263 474 308 532 q 218 342 218 415 q 263 209 218 268 m 243 839 l 129 839 q 175 971 135 910 q 281 1032 215 1032 q 388 1003 314 1032 q 478 972 467 972 q 509 982 496 972 q 527 1000 522 992 q 543 1031 532 1008 l 658 1031 q 603 893 644 951 q 490 835 561 835 q 394 865 461 835 q 303 896 328 896 q 243 839 260 896 z "},"¦":{"ha":747,"x_min":292,"x_max":456,"o":"m 456 471 l 456 0 l 292 0 l 292 471 l 456 471 m 456 1178 l 456 707 l 292 707 l 292 1178 l 456 1178 z "},"ç":{"ha":585,"x_min":21,"x_max":533,"o":"m 533 661 l 533 474 q 390 540 467 540 q 265 479 313 540 q 218 338 218 418 q 267 198 218 254 q 397 142 317 142 q 533 207 475 142 l 533 19 q 365 -22 458 -22 q 119 83 217 -22 q 21 339 21 189 q 122 599 21 493 q 375 704 222 704 q 533 661 464 704 m 297 -28 l 425 -93 l 264 -286 l 161 -233 l 297 -28 z "},"©":{"ha":1111,"x_min":8,"x_max":1103,"o":"m 944 133 q 864 52 944 133 q 556 -28 785 -28 q 167 133 326 -28 q 8 524 8 293 q 167 915 8 754 q 556 1075 326 1075 q 944 915 785 1075 q 1103 524 1103 754 q 944 133 1103 293 m 859 831 q 797 893 859 831 q 556 956 735 956 q 252 831 376 956 q 128 524 128 707 q 253 216 128 340 q 556 92 378 92 q 858 216 733 92 q 983 524 983 340 q 859 831 983 707 m 836 638 l 714 638 q 657 717 703 689 q 556 744 611 744 q 419 678 474 744 q 365 528 365 613 q 419 377 365 443 q 556 311 474 311 q 657 339 611 311 q 714 418 703 367 l 836 418 q 742 254 817 317 q 556 192 667 192 q 335 290 424 192 q 246 528 246 389 q 335 765 246 667 q 556 864 424 864 q 742 801 667 864 q 836 638 817 739 z "},"°":{"ha":556,"x_min":69,"x_max":486,"o":"m 425 1014 q 456 983 425 1014 q 486 867 486 953 q 425 719 486 781 q 278 658 364 658 q 131 719 192 658 q 69 867 69 781 q 130 1014 68 953 q 278 1075 192 1075 q 425 1014 364 1075 m 358 947 q 341 964 358 947 q 276 981 324 981 q 196 947 229 981 q 164 867 163 914 q 199 785 165 818 q 279 753 232 753 q 359 786 326 753 q 392 867 392 819 q 358 947 392 914 z "},"÷":{"ha":803,"x_min":46,"x_max":757,"o":"m 320 169 q 337 186 320 169 q 401 203 354 203 q 483 169 449 203 q 517 88 517 135 q 483 6 517 39 q 401 -28 450 -28 q 319 6 353 -28 q 286 88 286 39 q 320 169 286 135 m 320 705 q 337 722 320 705 q 401 739 354 739 q 483 705 449 739 q 517 624 517 671 q 483 542 517 575 q 401 508 450 508 q 319 542 353 508 q 286 624 286 575 q 320 705 286 671 m 46 274 l 46 438 l 757 438 l 757 274 l 46 274 z "},"é":{"ha":696,"x_min":21,"x_max":675,"o":"m 675 310 l 226 310 q 259 181 226 235 q 361 126 292 126 q 492 219 446 126 l 671 190 q 553 33 636 89 q 361 -22 469 -22 q 113 77 206 -22 q 21 335 21 176 q 106 601 21 497 q 351 704 192 704 q 593 601 511 704 q 675 333 675 497 l 675 310 m 232 431 l 492 431 q 449 528 483 488 q 363 568 415 568 q 274 528 307 568 q 232 431 240 489 m 394 1075 l 536 989 l 326 781 l 228 842 l 394 1075 z "},"ê":{"ha":696,"x_min":21,"x_max":675,"o":"m 675 310 l 226 310 q 259 181 226 235 q 361 126 292 126 q 492 219 446 126 l 671 190 q 553 33 636 89 q 361 -22 469 -22 q 113 77 206 -22 q 21 335 21 176 q 106 601 21 497 q 351 704 192 704 q 593 601 511 704 q 675 333 675 497 l 675 310 m 232 431 l 492 431 q 449 528 483 488 q 363 568 415 568 q 274 528 307 568 q 232 431 240 489 m 113 861 l 349 1075 l 585 861 l 501 769 l 349 914 l 196 769 l 113 861 z "},"ë":{"ha":696,"x_min":21,"x_max":675,"o":"m 675 310 l 226 310 q 259 181 226 235 q 361 126 292 126 q 492 219 446 126 l 671 190 q 553 33 636 89 q 361 -22 469 -22 q 113 77 206 -22 q 21 335 21 176 q 106 601 21 497 q 351 704 192 704 q 593 601 511 704 q 675 333 675 497 l 675 310 m 232 431 l 492 431 q 449 528 483 488 q 363 568 415 568 q 274 528 307 568 q 232 431 240 489 m 124 1026 q 141 1042 124 1026 q 203 1058 157 1058 q 281 1026 249 1058 q 314 947 314 993 q 281 869 314 901 q 203 836 249 836 q 124 869 157 836 q 92 947 92 901 q 124 1026 92 993 m 417 1026 q 434 1042 417 1026 q 496 1058 450 1058 q 574 1026 542 1058 q 607 947 607 993 q 574 869 607 901 q 496 836 542 836 q 417 869 450 836 q 385 947 385 901 q 417 1026 385 993 z "},"è":{"ha":696,"x_min":21,"x_max":675,"o":"m 675 310 l 226 310 q 259 181 226 235 q 361 126 292 126 q 492 219 446 126 l 671 190 q 553 33 636 89 q 361 -22 469 -22 q 113 77 206 -22 q 21 335 21 176 q 106 601 21 497 q 351 704 192 704 q 593 601 511 704 q 675 333 675 497 l 675 310 m 232 431 l 492 431 q 449 528 483 488 q 363 568 415 568 q 274 528 307 568 q 232 431 240 489 m 194 989 l 336 1075 l 503 842 l 404 781 l 194 989 z "},"ð":{"ha":761,"x_min":22,"x_max":739,"o":"m 497 474 q 475 503 497 474 q 381 532 453 532 q 264 474 308 532 q 219 340 219 415 q 265 208 219 267 q 381 150 310 150 q 497 208 451 150 q 542 340 542 267 q 497 474 542 415 m 47 851 l 208 971 q 100 1081 160 1022 l 231 1178 l 338 1067 l 486 1178 l 578 1083 l 424 969 q 739 340 739 603 q 640 79 739 181 q 381 -22 540 -22 q 122 79 221 -22 q 22 340 22 181 q 122 602 22 500 q 381 704 222 704 q 353 797 418 704 q 328 831 340 814 l 294 872 l 139 757 l 47 851 z "},"í":{"ha":351,"x_min":56,"x_max":364,"o":"m 274 682 l 274 0 l 79 0 l 79 682 l 274 682 m 222 1075 l 364 989 l 154 781 l 56 842 l 222 1075 z "},"î":{"ha":351,"x_min":-60,"x_max":413,"o":"m 274 682 l 274 0 l 79 0 l 79 682 l 274 682 m -60 861 l 176 1075 l 413 861 l 329 769 l 176 914 l 24 769 l -60 861 z "},"ï":{"ha":351,"x_min":-81,"x_max":435,"o":"m 274 682 l 274 0 l 79 0 l 79 682 l 274 682 m -48 1026 q -32 1042 -48 1026 q 31 1058 -15 1058 q 109 1026 76 1058 q 142 947 142 993 q 109 869 142 901 q 31 836 76 836 q -48 869 -15 836 q -81 947 -81 901 q -48 1026 -81 993 m 245 1026 q 261 1042 245 1026 q 324 1058 278 1058 q 402 1026 369 1058 q 435 947 435 993 q 402 869 435 901 q 324 836 369 836 q 245 869 278 836 q 213 947 213 901 q 245 1026 213 993 z "},"ì":{"ha":351,"x_min":22,"x_max":331,"o":"m 274 682 l 274 0 l 79 0 l 79 682 l 274 682 m 22 989 l 164 1075 l 331 842 l 232 781 l 22 989 z "},"¬":{"ha":803,"x_min":46,"x_max":757,"o":"m 593 197 l 593 438 l 46 438 l 46 601 l 757 601 l 757 197 l 593 197 z "},"−":{"ha":803,"x_min":46,"x_max":757,"o":"m 46 274 l 46 438 l 757 438 l 757 274 l 46 274 z "},"μ":{"ha":743,"x_min":65,"x_max":676,"o":"m 65 682 l 260 682 l 260 313 q 371 142 260 142 q 482 313 482 142 l 482 682 l 676 682 l 676 281 q 371 -22 676 -22 q 351 -21 361 -22 q 335 -19 342 -19 q 319 -14 328 -18 q 306 -8 310 -10 q 293 -1 303 -7 q 282 5 283 4 q 269 13 281 6 l 260 19 l 260 -364 l 65 -364 l 65 682 z "},"×":{"ha":803,"x_min":46,"x_max":757,"o":"m 46 594 l 163 711 l 403 471 l 640 711 l 757 594 l 518 356 l 757 117 l 640 0 l 401 240 l 163 0 l 46 117 l 286 356 l 46 594 z "},"ñ":{"ha":750,"x_min":69,"x_max":681,"o":"m 264 682 l 264 619 l 267 619 q 444 704 322 704 q 681 417 681 704 l 681 0 l 486 0 l 486 361 q 486 414 486 400 q 481 460 486 428 q 465 508 475 493 q 434 535 456 522 q 381 549 413 549 q 315 529 340 549 q 279 472 289 510 q 267 407 269 433 q 264 338 264 381 l 264 0 l 69 0 l 69 682 l 264 682 m 225 839 l 111 839 q 157 971 117 910 q 263 1032 197 1032 q 369 1003 297 1032 q 460 972 449 972 q 491 982 478 972 q 509 1000 504 992 q 525 1031 514 1008 l 640 1031 q 585 893 626 951 q 472 835 543 835 q 376 865 443 835 q 285 896 310 896 q 225 839 242 896 z "},"ó":{"ha":761,"x_min":22,"x_max":739,"o":"m 122 602 q 172 653 122 602 q 381 704 222 704 q 639 602 539 704 q 739 340 739 500 q 640 79 739 181 q 381 -22 540 -22 q 122 79 221 -22 q 22 340 22 181 q 122 602 22 500 m 497 474 q 475 503 497 474 q 381 532 453 532 q 264 474 308 532 q 219 340 219 415 q 265 208 219 267 q 381 150 310 150 q 497 208 451 150 q 542 340 542 267 q 497 474 542 415 m 426 1075 l 568 989 l 358 781 l 260 842 l 426 1075 z "},"ô":{"ha":761,"x_min":22,"x_max":739,"o":"m 122 602 q 172 653 122 602 q 381 704 222 704 q 639 602 539 704 q 739 340 739 500 q 640 79 739 181 q 381 -22 540 -22 q 122 79 221 -22 q 22 340 22 181 q 122 602 22 500 m 497 474 q 475 503 497 474 q 381 532 453 532 q 264 474 308 532 q 219 340 219 415 q 265 208 219 267 q 381 150 310 150 q 497 208 451 150 q 542 340 542 267 q 497 474 542 415 m 144 861 l 381 1075 l 617 861 l 533 769 l 381 914 l 228 769 l 144 861 z "},"ö":{"ha":761,"x_min":22,"x_max":739,"o":"m 122 602 q 172 653 122 602 q 381 704 222 704 q 639 602 539 704 q 739 340 739 500 q 640 79 739 181 q 381 -22 540 -22 q 122 79 221 -22 q 22 340 22 181 q 122 602 22 500 m 497 474 q 475 503 497 474 q 381 532 453 532 q 264 474 308 532 q 219 340 219 415 q 265 208 219 267 q 381 150 310 150 q 497 208 451 150 q 542 340 542 267 q 497 474 542 415 m 156 1026 q 173 1042 156 1026 q 235 1058 189 1058 q 313 1026 281 1058 q 346 947 346 993 q 313 869 346 901 q 235 836 281 836 q 156 869 189 836 q 124 947 124 901 q 156 1026 124 993 m 449 1026 q 466 1042 449 1026 q 528 1058 482 1058 q 606 1026 574 1058 q 639 947 639 993 q 606 869 639 901 q 528 836 574 836 q 449 869 482 836 q 417 947 417 901 q 449 1026 417 993 z "},"ò":{"ha":761,"x_min":22,"x_max":739,"o":"m 122 602 q 172 653 122 602 q 381 704 222 704 q 639 602 539 704 q 739 340 739 500 q 640 79 739 181 q 381 -22 540 -22 q 122 79 221 -22 q 22 340 22 181 q 122 602 22 500 m 497 474 q 475 503 497 474 q 381 532 453 532 q 264 474 308 532 q 219 340 219 415 q 265 208 219 267 q 381 150 310 150 q 497 208 451 150 q 542 340 542 267 q 497 474 542 415 m 226 989 l 368 1075 l 535 842 l 436 781 l 226 989 z "},"½":{"ha":1204,"x_min":56,"x_max":1149,"o":"m 746 1083 l 840 1036 l 279 -43 l 183 6 l 746 1083 m 144 942 l 56 942 l 56 1047 l 278 1047 l 278 419 l 144 419 l 144 942 m 926 107 l 1149 107 l 1149 0 l 690 0 l 864 201 q 886 227 865 203 q 915 260 907 251 q 941 294 922 269 q 969 333 960 318 q 990 367 978 347 q 1006 404 1001 388 q 1011 436 1011 421 q 988 510 1011 482 q 924 539 965 539 q 860 505 882 539 q 840 431 838 471 l 700 431 q 765 585 707 525 q 924 644 822 644 q 1081 586 1017 644 q 1144 443 1144 528 q 1114 327 1144 379 q 1026 214 1083 275 l 926 107 z "},"¼":{"ha":1204,"x_min":56,"x_max":1149,"o":"m 810 1083 l 904 1036 l 343 -43 l 247 6 l 810 1083 m 144 942 l 56 942 l 56 1047 l 278 1047 l 278 419 l 144 419 l 144 942 m 1076 210 l 1149 210 l 1149 111 l 1076 111 l 1076 0 l 951 0 l 951 111 l 653 111 l 653 165 l 956 640 l 1076 640 l 1076 210 m 951 210 l 951 460 l 949 460 l 806 210 l 951 210 z "},"¹":{"ha":481,"x_min":129,"x_max":351,"o":"m 218 942 l 129 942 l 129 1047 l 351 1047 l 351 419 l 218 419 l 218 942 z "},"õ":{"ha":761,"x_min":22,"x_max":739,"o":"m 122 602 q 172 653 122 602 q 381 704 222 704 q 639 602 539 704 q 739 340 739 500 q 640 79 739 181 q 381 -22 540 -22 q 122 79 221 -22 q 22 340 22 181 q 122 602 22 500 m 497 474 q 475 503 497 474 q 381 532 453 532 q 264 474 308 532 q 219 340 219 415 q 265 208 219 267 q 381 150 310 150 q 497 208 451 150 q 542 340 542 267 q 497 474 542 415 m 231 839 l 117 839 q 163 971 122 910 q 268 1032 203 1032 q 375 1003 303 1032 q 465 972 454 972 q 497 982 483 972 q 515 1000 510 992 q 531 1031 519 1008 l 646 1031 q 590 893 632 951 q 478 835 549 835 q 382 865 449 835 q 290 896 315 896 q 231 839 247 896 z "},"±":{"ha":803,"x_min":46,"x_max":757,"o":"m 46 0 l 46 164 l 757 164 l 757 0 l 46 0 m 319 875 l 483 875 l 483 636 l 757 636 l 757 472 l 483 472 l 483 233 l 319 233 l 319 472 l 46 472 l 46 636 l 319 636 l 319 875 z "},"®":{"ha":1111,"x_min":8,"x_max":1103,"o":"m 944 133 q 864 52 944 133 q 556 -28 785 -28 q 167 133 326 -28 q 8 524 8 293 q 167 915 8 754 q 556 1075 326 1075 q 944 915 785 1075 q 1103 524 1103 754 q 944 133 1103 293 m 859 831 q 797 893 859 831 q 556 956 735 956 q 252 831 376 956 q 128 524 128 707 q 253 216 128 340 q 556 92 378 92 q 858 216 733 92 q 983 524 983 340 q 859 831 983 707 m 671 468 l 810 240 l 679 240 l 546 468 l 446 468 l 446 240 l 326 240 l 326 813 l 604 813 q 772 778 717 813 q 826 638 826 743 q 671 468 826 479 m 446 571 l 607 571 q 685 587 660 571 q 710 647 710 603 q 699 683 710 669 q 663 702 688 697 q 623 708 639 707 q 578 710 607 710 l 446 710 l 446 571 z "},"š":{"ha":569,"x_min":28,"x_max":533,"o":"m 503 633 l 419 521 q 317 568 369 568 q 272 551 292 568 q 253 510 253 533 q 260 484 253 496 q 283 463 267 472 q 313 448 299 454 q 352 432 326 442 q 393 415 378 422 q 495 344 457 388 q 533 219 533 300 q 456 44 533 110 q 268 -22 379 -22 q 28 92 122 -22 l 117 207 q 261 128 188 128 q 317 148 294 128 q 339 201 339 168 q 333 231 339 218 q 310 256 326 244 q 281 272 293 267 q 242 289 269 278 q 203 304 214 300 q 103 371 139 332 q 67 483 67 410 q 127 642 67 579 q 283 704 188 704 q 503 633 422 704 m 36 985 l 119 1075 l 283 931 l 449 1075 l 532 985 l 283 769 l 36 985 z "},"þ":{"ha":785,"x_min":69,"x_max":764,"o":"m 264 1178 l 264 619 q 453 704 335 704 q 678 595 592 704 q 764 344 764 486 q 678 87 764 196 q 449 -22 593 -22 q 344 1 394 -22 q 267 64 294 24 l 264 64 l 264 -364 l 69 -364 l 69 1178 l 264 1178 m 290 209 q 312 180 290 209 q 406 150 335 150 q 522 209 476 150 q 567 342 567 268 q 522 474 567 415 q 406 532 476 532 q 290 474 335 532 q 244 342 244 415 q 290 209 244 268 z "},"¾":{"ha":1204,"x_min":56,"x_max":1149,"o":"m 882 1083 l 976 1036 l 415 -43 l 319 6 l 882 1083 m 1076 210 l 1149 210 l 1149 111 l 1076 111 l 1076 0 l 951 0 l 951 111 l 653 111 l 653 165 l 956 640 l 1076 640 l 1076 210 m 951 210 l 951 460 l 949 460 l 806 210 l 951 210 m 207 894 l 81 894 q 144 1026 89 978 q 289 1075 199 1075 q 431 1027 376 1075 q 485 899 485 979 q 419 767 485 808 q 485 706 463 749 q 507 614 507 663 q 444 468 507 522 q 281 414 381 414 q 124 471 188 414 q 56 613 61 528 l 189 613 q 218 547 192 574 q 286 521 244 521 q 353 551 328 521 q 378 621 378 582 q 351 692 378 661 q 282 721 325 724 l 257 719 l 257 807 l 272 807 q 336 831 314 807 q 358 894 358 854 q 338 951 358 928 q 281 974 317 974 q 228 950 247 974 q 207 894 208 926 z "},"³":{"ha":481,"x_min":15,"x_max":467,"o":"m 167 894 l 40 894 q 103 1026 49 978 q 249 1075 158 1075 q 390 1027 336 1075 q 444 899 444 979 q 379 767 444 808 q 444 706 422 749 q 467 614 467 663 q 403 468 467 522 q 240 414 340 414 q 84 471 147 414 q 15 613 21 528 l 149 613 q 177 547 151 574 q 246 521 203 521 q 313 551 288 521 q 338 621 338 582 q 311 692 338 661 q 242 721 285 724 l 217 719 l 217 807 l 232 807 q 296 831 274 807 q 318 894 318 854 q 297 951 318 928 q 240 974 276 974 q 188 950 207 974 q 167 894 168 926 z "},"™":{"ha":1389,"x_min":58,"x_max":1331,"o":"m 531 1047 l 531 943 l 354 943 l 354 463 l 235 463 l 235 943 l 58 943 l 58 1047 l 531 1047 m 1331 1047 l 1331 463 l 1211 463 l 1211 928 l 1208 928 l 1039 463 l 924 463 l 760 928 l 757 928 l 757 463 l 638 463 l 638 1047 l 844 1047 l 981 665 l 983 665 l 1125 1047 l 1331 1047 z "},"²":{"ha":481,"x_min":11,"x_max":469,"o":"m 247 526 l 469 526 l 469 419 l 11 419 l 185 621 q 207 647 186 622 q 235 680 228 671 q 262 713 243 689 q 290 752 281 738 q 310 787 299 767 q 327 824 322 807 q 332 856 332 840 q 309 930 332 901 q 244 958 286 958 q 181 924 203 958 q 161 850 158 890 l 21 850 q 85 1004 28 944 q 244 1064 143 1064 q 401 1006 338 1064 q 465 863 465 947 q 435 747 465 799 q 347 633 404 694 l 247 526 z "},"ú":{"ha":743,"x_min":65,"x_max":676,"o":"m 65 682 l 260 682 l 260 313 q 371 142 260 142 q 482 313 482 142 l 482 682 l 676 682 l 676 281 q 371 -22 676 -22 q 65 281 65 -22 l 65 682 m 418 1075 l 560 989 l 350 781 l 251 842 l 418 1075 z "},"û":{"ha":743,"x_min":65,"x_max":676,"o":"m 65 682 l 260 682 l 260 313 q 371 142 260 142 q 482 313 482 142 l 482 682 l 676 682 l 676 281 q 371 -22 676 -22 q 65 281 65 -22 l 65 682 m 136 861 l 372 1075 l 608 861 l 525 769 l 372 914 l 219 769 l 136 861 z "},"ü":{"ha":743,"x_min":65,"x_max":676,"o":"m 65 682 l 260 682 l 260 313 q 371 142 260 142 q 482 313 482 142 l 482 682 l 676 682 l 676 281 q 371 -22 676 -22 q 65 281 65 -22 l 65 682 m 148 1026 q 164 1042 148 1026 q 226 1058 181 1058 q 305 1026 272 1058 q 338 947 338 993 q 305 869 338 901 q 226 836 272 836 q 148 869 181 836 q 115 947 115 901 q 148 1026 115 993 m 441 1026 q 457 1042 441 1026 q 519 1058 474 1058 q 598 1026 565 1058 q 631 947 631 993 q 598 869 631 901 q 519 836 565 836 q 441 869 474 836 q 408 947 408 901 q 441 1026 408 993 z "},"ù":{"ha":743,"x_min":65,"x_max":676,"o":"m 65 682 l 260 682 l 260 313 q 371 142 260 142 q 482 313 482 142 l 482 682 l 676 682 l 676 281 q 371 -22 676 -22 q 65 281 65 -22 l 65 682 m 201 989 l 343 1075 l 510 842 l 411 781 l 201 989 z "},"ý":{"ha":722,"x_min":-25,"x_max":750,"o":"m 265 104 l -25 682 l 196 682 l 358 294 l 533 682 l 750 682 l 254 -364 l 40 -364 l 265 104 m 407 1075 l 549 989 l 339 781 l 240 842 l 407 1075 z "},"ÿ":{"ha":722,"x_min":-25,"x_max":750,"o":"m 265 104 l -25 682 l 196 682 l 358 294 l 533 682 l 750 682 l 254 -364 l 40 -364 l 265 104 m 137 1026 q 153 1042 137 1026 q 215 1058 169 1058 q 294 1026 261 1058 q 326 947 326 993 q 294 869 326 901 q 215 836 261 836 q 137 869 169 836 q 104 947 104 901 q 137 1026 104 993 m 430 1026 q 446 1042 430 1026 q 508 1058 463 1058 q 587 1026 554 1058 q 619 947 619 993 q 587 869 619 901 q 508 836 554 836 q 430 869 463 836 q 397 947 397 901 q 430 1026 397 993 z "},"ž":{"ha":668,"x_min":-1,"x_max":668,"o":"m 322 164 l 646 164 l 646 0 l -1 0 l 347 518 l 53 518 l 53 682 l 668 682 l 322 164 m 86 985 l 169 1075 l 333 931 l 499 1075 l 582 985 l 333 769 l 86 985 z "},"€":{"ha":803,"x_min":-44,"x_max":814,"o":"m 681 458 l 279 458 q 275 519 275 489 q 276 557 275 544 l 704 557 l 726 649 l 294 649 q 399 813 326 753 q 583 881 475 881 q 768 813 694 881 l 814 1014 q 581 1075 703 1075 q 251 951 392 1075 q 78 649 117 832 l -22 649 l -44 557 l 65 557 q 64 515 64 543 q 67 458 64 494 l -22 458 l -44 367 l 83 367 q 261 86 129 197 q 576 -28 397 -28 q 768 17 672 -28 l 768 246 q 688 186 726 204 q 582 167 642 167 q 411 225 486 167 q 304 367 342 278 l 658 367 l 681 458 z "}," ":{"ha":401,"x_min":0,"x_max":0,"o":""},"-":{"ha":458,"x_min":60,"x_max":399,"o":"m 60 525 l 399 525 l 399 365 l 60 365 l 60 525 z "}}}
